%TF.GenerationSoftware,KiCad,Pcbnew,7.0.6*%
%TF.CreationDate,2024-04-30T22:03:54+02:00*%
%TF.ProjectId,MB-V2,4d422d56-322e-46b6-9963-61645f706362,rev?*%
%TF.SameCoordinates,Original*%
%TF.FileFunction,Legend,Bot*%
%TF.FilePolarity,Positive*%
%FSLAX46Y46*%
G04 Gerber Fmt 4.6, Leading zero omitted, Abs format (unit mm)*
G04 Created by KiCad (PCBNEW 7.0.6) date 2024-04-30 22:03:54*
%MOMM*%
%LPD*%
G01*
G04 APERTURE LIST*
%ADD10C,0.062500*%
%ADD11C,0.125000*%
%ADD12C,0.150000*%
G04 APERTURE END LIST*
D10*
X178035072Y-108454607D02*
X178082691Y-108430797D01*
X178082691Y-108430797D02*
X178177929Y-108430797D01*
X178177929Y-108430797D02*
X178225548Y-108454607D01*
X178225548Y-108454607D02*
X178273167Y-108502226D01*
X178273167Y-108502226D02*
X178296977Y-108549845D01*
X178296977Y-108549845D02*
X178296977Y-108645083D01*
X178296977Y-108645083D02*
X178273167Y-108692702D01*
X178273167Y-108692702D02*
X178225548Y-108740321D01*
X178225548Y-108740321D02*
X178177929Y-108764130D01*
X178177929Y-108764130D02*
X178082691Y-108764130D01*
X178082691Y-108764130D02*
X178035072Y-108740321D01*
X178130310Y-108264130D02*
X178249358Y-108287940D01*
X178249358Y-108287940D02*
X178368405Y-108359369D01*
X178368405Y-108359369D02*
X178439834Y-108478416D01*
X178439834Y-108478416D02*
X178463643Y-108597464D01*
X178463643Y-108597464D02*
X178439834Y-108716511D01*
X178439834Y-108716511D02*
X178368405Y-108835559D01*
X178368405Y-108835559D02*
X178249358Y-108906988D01*
X178249358Y-108906988D02*
X178130310Y-108930797D01*
X178130310Y-108930797D02*
X178011262Y-108906988D01*
X178011262Y-108906988D02*
X177892215Y-108835559D01*
X177892215Y-108835559D02*
X177820786Y-108716511D01*
X177820786Y-108716511D02*
X177796977Y-108597464D01*
X177796977Y-108597464D02*
X177820786Y-108478416D01*
X177820786Y-108478416D02*
X177892215Y-108359369D01*
X177892215Y-108359369D02*
X178011262Y-108287940D01*
X178011262Y-108287940D02*
X178130310Y-108264130D01*
X177201739Y-108835559D02*
X177201739Y-108335559D01*
X177201739Y-108335559D02*
X177082691Y-108335559D01*
X177082691Y-108335559D02*
X177011263Y-108359369D01*
X177011263Y-108359369D02*
X176963644Y-108406988D01*
X176963644Y-108406988D02*
X176939834Y-108454607D01*
X176939834Y-108454607D02*
X176916025Y-108549845D01*
X176916025Y-108549845D02*
X176916025Y-108621273D01*
X176916025Y-108621273D02*
X176939834Y-108716511D01*
X176939834Y-108716511D02*
X176963644Y-108764130D01*
X176963644Y-108764130D02*
X177011263Y-108811750D01*
X177011263Y-108811750D02*
X177082691Y-108835559D01*
X177082691Y-108835559D02*
X177201739Y-108835559D01*
X176701739Y-108787940D02*
X176677929Y-108811750D01*
X176677929Y-108811750D02*
X176701739Y-108835559D01*
X176701739Y-108835559D02*
X176725548Y-108811750D01*
X176725548Y-108811750D02*
X176701739Y-108787940D01*
X176701739Y-108787940D02*
X176701739Y-108835559D01*
X176082692Y-108835559D02*
X176082692Y-108335559D01*
X176082692Y-108335559D02*
X175796978Y-108835559D01*
X175796978Y-108835559D02*
X175796978Y-108335559D01*
X175487453Y-108835559D02*
X175535072Y-108811750D01*
X175535072Y-108811750D02*
X175558882Y-108787940D01*
X175558882Y-108787940D02*
X175582691Y-108740321D01*
X175582691Y-108740321D02*
X175582691Y-108597464D01*
X175582691Y-108597464D02*
X175558882Y-108549845D01*
X175558882Y-108549845D02*
X175535072Y-108526035D01*
X175535072Y-108526035D02*
X175487453Y-108502226D01*
X175487453Y-108502226D02*
X175416025Y-108502226D01*
X175416025Y-108502226D02*
X175368406Y-108526035D01*
X175368406Y-108526035D02*
X175344596Y-108549845D01*
X175344596Y-108549845D02*
X175320787Y-108597464D01*
X175320787Y-108597464D02*
X175320787Y-108740321D01*
X175320787Y-108740321D02*
X175344596Y-108787940D01*
X175344596Y-108787940D02*
X175368406Y-108811750D01*
X175368406Y-108811750D02*
X175416025Y-108835559D01*
X175416025Y-108835559D02*
X175487453Y-108835559D01*
X175154120Y-108502226D02*
X175035072Y-108835559D01*
X175035072Y-108835559D02*
X174916025Y-108502226D01*
X174511263Y-108835559D02*
X174511263Y-108573654D01*
X174511263Y-108573654D02*
X174535073Y-108526035D01*
X174535073Y-108526035D02*
X174582692Y-108502226D01*
X174582692Y-108502226D02*
X174677930Y-108502226D01*
X174677930Y-108502226D02*
X174725549Y-108526035D01*
X174511263Y-108811750D02*
X174558882Y-108835559D01*
X174558882Y-108835559D02*
X174677930Y-108835559D01*
X174677930Y-108835559D02*
X174725549Y-108811750D01*
X174725549Y-108811750D02*
X174749358Y-108764130D01*
X174749358Y-108764130D02*
X174749358Y-108716511D01*
X174749358Y-108716511D02*
X174725549Y-108668892D01*
X174725549Y-108668892D02*
X174677930Y-108645083D01*
X174677930Y-108645083D02*
X174558882Y-108645083D01*
X174558882Y-108645083D02*
X174511263Y-108621273D01*
X174273168Y-108835559D02*
X174273168Y-108335559D01*
X174225549Y-108645083D02*
X174082692Y-108835559D01*
X174082692Y-108502226D02*
X174273168Y-108692702D01*
X173511263Y-108383178D02*
X173487454Y-108359369D01*
X173487454Y-108359369D02*
X173439835Y-108335559D01*
X173439835Y-108335559D02*
X173320787Y-108335559D01*
X173320787Y-108335559D02*
X173273168Y-108359369D01*
X173273168Y-108359369D02*
X173249359Y-108383178D01*
X173249359Y-108383178D02*
X173225549Y-108430797D01*
X173225549Y-108430797D02*
X173225549Y-108478416D01*
X173225549Y-108478416D02*
X173249359Y-108549845D01*
X173249359Y-108549845D02*
X173535073Y-108835559D01*
X173535073Y-108835559D02*
X173225549Y-108835559D01*
X172916026Y-108335559D02*
X172868407Y-108335559D01*
X172868407Y-108335559D02*
X172820788Y-108359369D01*
X172820788Y-108359369D02*
X172796978Y-108383178D01*
X172796978Y-108383178D02*
X172773169Y-108430797D01*
X172773169Y-108430797D02*
X172749359Y-108526035D01*
X172749359Y-108526035D02*
X172749359Y-108645083D01*
X172749359Y-108645083D02*
X172773169Y-108740321D01*
X172773169Y-108740321D02*
X172796978Y-108787940D01*
X172796978Y-108787940D02*
X172820788Y-108811750D01*
X172820788Y-108811750D02*
X172868407Y-108835559D01*
X172868407Y-108835559D02*
X172916026Y-108835559D01*
X172916026Y-108835559D02*
X172963645Y-108811750D01*
X172963645Y-108811750D02*
X172987454Y-108787940D01*
X172987454Y-108787940D02*
X173011264Y-108740321D01*
X173011264Y-108740321D02*
X173035073Y-108645083D01*
X173035073Y-108645083D02*
X173035073Y-108526035D01*
X173035073Y-108526035D02*
X173011264Y-108430797D01*
X173011264Y-108430797D02*
X172987454Y-108383178D01*
X172987454Y-108383178D02*
X172963645Y-108359369D01*
X172963645Y-108359369D02*
X172916026Y-108335559D01*
X172558883Y-108383178D02*
X172535074Y-108359369D01*
X172535074Y-108359369D02*
X172487455Y-108335559D01*
X172487455Y-108335559D02*
X172368407Y-108335559D01*
X172368407Y-108335559D02*
X172320788Y-108359369D01*
X172320788Y-108359369D02*
X172296979Y-108383178D01*
X172296979Y-108383178D02*
X172273169Y-108430797D01*
X172273169Y-108430797D02*
X172273169Y-108478416D01*
X172273169Y-108478416D02*
X172296979Y-108549845D01*
X172296979Y-108549845D02*
X172582693Y-108835559D01*
X172582693Y-108835559D02*
X172273169Y-108835559D01*
X172106503Y-108335559D02*
X171796979Y-108335559D01*
X171796979Y-108335559D02*
X171963646Y-108526035D01*
X171963646Y-108526035D02*
X171892217Y-108526035D01*
X171892217Y-108526035D02*
X171844598Y-108549845D01*
X171844598Y-108549845D02*
X171820789Y-108573654D01*
X171820789Y-108573654D02*
X171796979Y-108621273D01*
X171796979Y-108621273D02*
X171796979Y-108740321D01*
X171796979Y-108740321D02*
X171820789Y-108787940D01*
X171820789Y-108787940D02*
X171844598Y-108811750D01*
X171844598Y-108811750D02*
X171892217Y-108835559D01*
X171892217Y-108835559D02*
X172035074Y-108835559D01*
X172035074Y-108835559D02*
X172082693Y-108811750D01*
X172082693Y-108811750D02*
X172106503Y-108787940D01*
D11*
X178403478Y-107983357D02*
X178403478Y-107083357D01*
X178403478Y-107083357D02*
X178103478Y-107726214D01*
X178103478Y-107726214D02*
X177803478Y-107083357D01*
X177803478Y-107083357D02*
X177803478Y-107983357D01*
X176989193Y-107983357D02*
X176989193Y-107511928D01*
X176989193Y-107511928D02*
X177032050Y-107426214D01*
X177032050Y-107426214D02*
X177117764Y-107383357D01*
X177117764Y-107383357D02*
X177289193Y-107383357D01*
X177289193Y-107383357D02*
X177374907Y-107426214D01*
X176989193Y-107940500D02*
X177074907Y-107983357D01*
X177074907Y-107983357D02*
X177289193Y-107983357D01*
X177289193Y-107983357D02*
X177374907Y-107940500D01*
X177374907Y-107940500D02*
X177417764Y-107854785D01*
X177417764Y-107854785D02*
X177417764Y-107769071D01*
X177417764Y-107769071D02*
X177374907Y-107683357D01*
X177374907Y-107683357D02*
X177289193Y-107640500D01*
X177289193Y-107640500D02*
X177074907Y-107640500D01*
X177074907Y-107640500D02*
X176989193Y-107597642D01*
X176689192Y-107383357D02*
X176346335Y-107383357D01*
X176560621Y-107083357D02*
X176560621Y-107854785D01*
X176560621Y-107854785D02*
X176517764Y-107940500D01*
X176517764Y-107940500D02*
X176432049Y-107983357D01*
X176432049Y-107983357D02*
X176346335Y-107983357D01*
X175660621Y-107940500D02*
X175746335Y-107983357D01*
X175746335Y-107983357D02*
X175917763Y-107983357D01*
X175917763Y-107983357D02*
X176003478Y-107940500D01*
X176003478Y-107940500D02*
X176046335Y-107897642D01*
X176046335Y-107897642D02*
X176089192Y-107811928D01*
X176089192Y-107811928D02*
X176089192Y-107554785D01*
X176089192Y-107554785D02*
X176046335Y-107469071D01*
X176046335Y-107469071D02*
X176003478Y-107426214D01*
X176003478Y-107426214D02*
X175917763Y-107383357D01*
X175917763Y-107383357D02*
X175746335Y-107383357D01*
X175746335Y-107383357D02*
X175660621Y-107426214D01*
X175274906Y-107983357D02*
X175274906Y-107083357D01*
X174889192Y-107983357D02*
X174889192Y-107511928D01*
X174889192Y-107511928D02*
X174932049Y-107426214D01*
X174932049Y-107426214D02*
X175017763Y-107383357D01*
X175017763Y-107383357D02*
X175146334Y-107383357D01*
X175146334Y-107383357D02*
X175232049Y-107426214D01*
X175232049Y-107426214D02*
X175274906Y-107469071D01*
X174460620Y-107983357D02*
X174460620Y-107083357D01*
X174460620Y-107426214D02*
X174374906Y-107383357D01*
X174374906Y-107383357D02*
X174203477Y-107383357D01*
X174203477Y-107383357D02*
X174117763Y-107426214D01*
X174117763Y-107426214D02*
X174074906Y-107469071D01*
X174074906Y-107469071D02*
X174032048Y-107554785D01*
X174032048Y-107554785D02*
X174032048Y-107811928D01*
X174032048Y-107811928D02*
X174074906Y-107897642D01*
X174074906Y-107897642D02*
X174117763Y-107940500D01*
X174117763Y-107940500D02*
X174203477Y-107983357D01*
X174203477Y-107983357D02*
X174374906Y-107983357D01*
X174374906Y-107983357D02*
X174460620Y-107940500D01*
X173517762Y-107983357D02*
X173603477Y-107940500D01*
X173603477Y-107940500D02*
X173646334Y-107897642D01*
X173646334Y-107897642D02*
X173689191Y-107811928D01*
X173689191Y-107811928D02*
X173689191Y-107554785D01*
X173689191Y-107554785D02*
X173646334Y-107469071D01*
X173646334Y-107469071D02*
X173603477Y-107426214D01*
X173603477Y-107426214D02*
X173517762Y-107383357D01*
X173517762Y-107383357D02*
X173389191Y-107383357D01*
X173389191Y-107383357D02*
X173303477Y-107426214D01*
X173303477Y-107426214D02*
X173260620Y-107469071D01*
X173260620Y-107469071D02*
X173217762Y-107554785D01*
X173217762Y-107554785D02*
X173217762Y-107811928D01*
X173217762Y-107811928D02*
X173260620Y-107897642D01*
X173260620Y-107897642D02*
X173303477Y-107940500D01*
X173303477Y-107940500D02*
X173389191Y-107983357D01*
X173389191Y-107983357D02*
X173517762Y-107983357D01*
X172917762Y-107983357D02*
X172446334Y-107383357D01*
X172917762Y-107383357D02*
X172446334Y-107983357D01*
X170903477Y-107983357D02*
X171203477Y-107554785D01*
X171417763Y-107983357D02*
X171417763Y-107083357D01*
X171417763Y-107083357D02*
X171074906Y-107083357D01*
X171074906Y-107083357D02*
X170989191Y-107126214D01*
X170989191Y-107126214D02*
X170946334Y-107169071D01*
X170946334Y-107169071D02*
X170903477Y-107254785D01*
X170903477Y-107254785D02*
X170903477Y-107383357D01*
X170903477Y-107383357D02*
X170946334Y-107469071D01*
X170946334Y-107469071D02*
X170989191Y-107511928D01*
X170989191Y-107511928D02*
X171074906Y-107554785D01*
X171074906Y-107554785D02*
X171417763Y-107554785D01*
X170046334Y-107126214D02*
X170132049Y-107083357D01*
X170132049Y-107083357D02*
X170260620Y-107083357D01*
X170260620Y-107083357D02*
X170389191Y-107126214D01*
X170389191Y-107126214D02*
X170474906Y-107211928D01*
X170474906Y-107211928D02*
X170517763Y-107297642D01*
X170517763Y-107297642D02*
X170560620Y-107469071D01*
X170560620Y-107469071D02*
X170560620Y-107597642D01*
X170560620Y-107597642D02*
X170517763Y-107769071D01*
X170517763Y-107769071D02*
X170474906Y-107854785D01*
X170474906Y-107854785D02*
X170389191Y-107940500D01*
X170389191Y-107940500D02*
X170260620Y-107983357D01*
X170260620Y-107983357D02*
X170174906Y-107983357D01*
X170174906Y-107983357D02*
X170046334Y-107940500D01*
X170046334Y-107940500D02*
X170003477Y-107897642D01*
X170003477Y-107897642D02*
X170003477Y-107597642D01*
X170003477Y-107597642D02*
X170174906Y-107597642D01*
X169317763Y-107511928D02*
X169189191Y-107554785D01*
X169189191Y-107554785D02*
X169146334Y-107597642D01*
X169146334Y-107597642D02*
X169103477Y-107683357D01*
X169103477Y-107683357D02*
X169103477Y-107811928D01*
X169103477Y-107811928D02*
X169146334Y-107897642D01*
X169146334Y-107897642D02*
X169189191Y-107940500D01*
X169189191Y-107940500D02*
X169274906Y-107983357D01*
X169274906Y-107983357D02*
X169617763Y-107983357D01*
X169617763Y-107983357D02*
X169617763Y-107083357D01*
X169617763Y-107083357D02*
X169317763Y-107083357D01*
X169317763Y-107083357D02*
X169232049Y-107126214D01*
X169232049Y-107126214D02*
X169189191Y-107169071D01*
X169189191Y-107169071D02*
X169146334Y-107254785D01*
X169146334Y-107254785D02*
X169146334Y-107340500D01*
X169146334Y-107340500D02*
X169189191Y-107426214D01*
X169189191Y-107426214D02*
X169232049Y-107469071D01*
X169232049Y-107469071D02*
X169317763Y-107511928D01*
X169317763Y-107511928D02*
X169617763Y-107511928D01*
X168160620Y-107083357D02*
X167860620Y-107983357D01*
X167860620Y-107983357D02*
X167560620Y-107083357D01*
X167303477Y-107169071D02*
X167260620Y-107126214D01*
X167260620Y-107126214D02*
X167174906Y-107083357D01*
X167174906Y-107083357D02*
X166960620Y-107083357D01*
X166960620Y-107083357D02*
X166874906Y-107126214D01*
X166874906Y-107126214D02*
X166832048Y-107169071D01*
X166832048Y-107169071D02*
X166789191Y-107254785D01*
X166789191Y-107254785D02*
X166789191Y-107340500D01*
X166789191Y-107340500D02*
X166832048Y-107469071D01*
X166832048Y-107469071D02*
X167346334Y-107983357D01*
X167346334Y-107983357D02*
X166789191Y-107983357D01*
D12*
X178222268Y-90034295D02*
X178222268Y-90605723D01*
X178222268Y-90605723D02*
X178260363Y-90720009D01*
X178260363Y-90720009D02*
X178336554Y-90796200D01*
X178336554Y-90796200D02*
X178450839Y-90834295D01*
X178450839Y-90834295D02*
X178527030Y-90834295D01*
X177460363Y-90834295D02*
X177841315Y-90834295D01*
X177841315Y-90834295D02*
X177841315Y-90034295D01*
X176736553Y-90758104D02*
X176774649Y-90796200D01*
X176774649Y-90796200D02*
X176888934Y-90834295D01*
X176888934Y-90834295D02*
X176965125Y-90834295D01*
X176965125Y-90834295D02*
X177079411Y-90796200D01*
X177079411Y-90796200D02*
X177155601Y-90720009D01*
X177155601Y-90720009D02*
X177193696Y-90643819D01*
X177193696Y-90643819D02*
X177231792Y-90491438D01*
X177231792Y-90491438D02*
X177231792Y-90377152D01*
X177231792Y-90377152D02*
X177193696Y-90224771D01*
X177193696Y-90224771D02*
X177155601Y-90148580D01*
X177155601Y-90148580D02*
X177079411Y-90072390D01*
X177079411Y-90072390D02*
X176965125Y-90034295D01*
X176965125Y-90034295D02*
X176888934Y-90034295D01*
X176888934Y-90034295D02*
X176774649Y-90072390D01*
X176774649Y-90072390D02*
X176736553Y-90110485D01*
X176165125Y-90034295D02*
X176165125Y-90605723D01*
X176165125Y-90605723D02*
X176203220Y-90720009D01*
X176203220Y-90720009D02*
X176279411Y-90796200D01*
X176279411Y-90796200D02*
X176393696Y-90834295D01*
X176393696Y-90834295D02*
X176469887Y-90834295D01*
X175403220Y-90834295D02*
X175784172Y-90834295D01*
X175784172Y-90834295D02*
X175784172Y-90034295D01*
X174679410Y-90758104D02*
X174717506Y-90796200D01*
X174717506Y-90796200D02*
X174831791Y-90834295D01*
X174831791Y-90834295D02*
X174907982Y-90834295D01*
X174907982Y-90834295D02*
X175022268Y-90796200D01*
X175022268Y-90796200D02*
X175098458Y-90720009D01*
X175098458Y-90720009D02*
X175136553Y-90643819D01*
X175136553Y-90643819D02*
X175174649Y-90491438D01*
X175174649Y-90491438D02*
X175174649Y-90377152D01*
X175174649Y-90377152D02*
X175136553Y-90224771D01*
X175136553Y-90224771D02*
X175098458Y-90148580D01*
X175098458Y-90148580D02*
X175022268Y-90072390D01*
X175022268Y-90072390D02*
X174907982Y-90034295D01*
X174907982Y-90034295D02*
X174831791Y-90034295D01*
X174831791Y-90034295D02*
X174717506Y-90072390D01*
X174717506Y-90072390D02*
X174679410Y-90110485D01*
X174107982Y-90034295D02*
X174107982Y-90605723D01*
X174107982Y-90605723D02*
X174146077Y-90720009D01*
X174146077Y-90720009D02*
X174222268Y-90796200D01*
X174222268Y-90796200D02*
X174336553Y-90834295D01*
X174336553Y-90834295D02*
X174412744Y-90834295D01*
X173346077Y-90834295D02*
X173727029Y-90834295D01*
X173727029Y-90834295D02*
X173727029Y-90034295D01*
X172622267Y-90758104D02*
X172660363Y-90796200D01*
X172660363Y-90796200D02*
X172774648Y-90834295D01*
X172774648Y-90834295D02*
X172850839Y-90834295D01*
X172850839Y-90834295D02*
X172965125Y-90796200D01*
X172965125Y-90796200D02*
X173041315Y-90720009D01*
X173041315Y-90720009D02*
X173079410Y-90643819D01*
X173079410Y-90643819D02*
X173117506Y-90491438D01*
X173117506Y-90491438D02*
X173117506Y-90377152D01*
X173117506Y-90377152D02*
X173079410Y-90224771D01*
X173079410Y-90224771D02*
X173041315Y-90148580D01*
X173041315Y-90148580D02*
X172965125Y-90072390D01*
X172965125Y-90072390D02*
X172850839Y-90034295D01*
X172850839Y-90034295D02*
X172774648Y-90034295D01*
X172774648Y-90034295D02*
X172660363Y-90072390D01*
X172660363Y-90072390D02*
X172622267Y-90110485D01*
X172050839Y-90034295D02*
X172050839Y-90605723D01*
X172050839Y-90605723D02*
X172088934Y-90720009D01*
X172088934Y-90720009D02*
X172165125Y-90796200D01*
X172165125Y-90796200D02*
X172279410Y-90834295D01*
X172279410Y-90834295D02*
X172355601Y-90834295D01*
X171288934Y-90834295D02*
X171669886Y-90834295D01*
X171669886Y-90834295D02*
X171669886Y-90034295D01*
X170565124Y-90758104D02*
X170603220Y-90796200D01*
X170603220Y-90796200D02*
X170717505Y-90834295D01*
X170717505Y-90834295D02*
X170793696Y-90834295D01*
X170793696Y-90834295D02*
X170907982Y-90796200D01*
X170907982Y-90796200D02*
X170984172Y-90720009D01*
X170984172Y-90720009D02*
X171022267Y-90643819D01*
X171022267Y-90643819D02*
X171060363Y-90491438D01*
X171060363Y-90491438D02*
X171060363Y-90377152D01*
X171060363Y-90377152D02*
X171022267Y-90224771D01*
X171022267Y-90224771D02*
X170984172Y-90148580D01*
X170984172Y-90148580D02*
X170907982Y-90072390D01*
X170907982Y-90072390D02*
X170793696Y-90034295D01*
X170793696Y-90034295D02*
X170717505Y-90034295D01*
X170717505Y-90034295D02*
X170603220Y-90072390D01*
X170603220Y-90072390D02*
X170565124Y-90110485D01*
M02*
