%TF.GenerationSoftware,KiCad,Pcbnew,7.0.6*%
%TF.CreationDate,2024-04-30T22:03:54+02:00*%
%TF.ProjectId,MB-V2,4d422d56-322e-46b6-9963-61645f706362,rev?*%
%TF.SameCoordinates,Original*%
%TF.FileFunction,Copper,L1,Top*%
%TF.FilePolarity,Positive*%
%FSLAX46Y46*%
G04 Gerber Fmt 4.6, Leading zero omitted, Abs format (unit mm)*
G04 Created by KiCad (PCBNEW 7.0.6) date 2024-04-30 22:03:54*
%MOMM*%
%LPD*%
G01*
G04 APERTURE LIST*
G04 Aperture macros list*
%AMRoundRect*
0 Rectangle with rounded corners*
0 $1 Rounding radius*
0 $2 $3 $4 $5 $6 $7 $8 $9 X,Y pos of 4 corners*
0 Add a 4 corners polygon primitive as box body*
4,1,4,$2,$3,$4,$5,$6,$7,$8,$9,$2,$3,0*
0 Add four circle primitives for the rounded corners*
1,1,$1+$1,$2,$3*
1,1,$1+$1,$4,$5*
1,1,$1+$1,$6,$7*
1,1,$1+$1,$8,$9*
0 Add four rect primitives between the rounded corners*
20,1,$1+$1,$2,$3,$4,$5,0*
20,1,$1+$1,$4,$5,$6,$7,0*
20,1,$1+$1,$6,$7,$8,$9,0*
20,1,$1+$1,$8,$9,$2,$3,0*%
G04 Aperture macros list end*
%TA.AperFunction,SMDPad,CuDef*%
%ADD10RoundRect,0.250000X-0.475000X0.250000X-0.475000X-0.250000X0.475000X-0.250000X0.475000X0.250000X0*%
%TD*%
%TA.AperFunction,SMDPad,CuDef*%
%ADD11RoundRect,0.250000X-0.450000X0.262500X-0.450000X-0.262500X0.450000X-0.262500X0.450000X0.262500X0*%
%TD*%
%TA.AperFunction,SMDPad,CuDef*%
%ADD12RoundRect,0.250000X0.425000X-0.450000X0.425000X0.450000X-0.425000X0.450000X-0.425000X-0.450000X0*%
%TD*%
%TA.AperFunction,SMDPad,CuDef*%
%ADD13RoundRect,0.250000X-0.262500X-0.450000X0.262500X-0.450000X0.262500X0.450000X-0.262500X0.450000X0*%
%TD*%
%TA.AperFunction,SMDPad,CuDef*%
%ADD14RoundRect,0.250000X0.450000X0.425000X-0.450000X0.425000X-0.450000X-0.425000X0.450000X-0.425000X0*%
%TD*%
%TA.AperFunction,SMDPad,CuDef*%
%ADD15RoundRect,0.250000X0.475000X-0.250000X0.475000X0.250000X-0.475000X0.250000X-0.475000X-0.250000X0*%
%TD*%
%TA.AperFunction,SMDPad,CuDef*%
%ADD16RoundRect,0.250000X0.450000X-0.262500X0.450000X0.262500X-0.450000X0.262500X-0.450000X-0.262500X0*%
%TD*%
%TA.AperFunction,SMDPad,CuDef*%
%ADD17RoundRect,0.250000X0.262500X0.450000X-0.262500X0.450000X-0.262500X-0.450000X0.262500X-0.450000X0*%
%TD*%
%TA.AperFunction,ComponentPad*%
%ADD18R,3.500000X3.500000*%
%TD*%
%TA.AperFunction,ComponentPad*%
%ADD19RoundRect,0.750000X0.750000X1.000000X-0.750000X1.000000X-0.750000X-1.000000X0.750000X-1.000000X0*%
%TD*%
%TA.AperFunction,ComponentPad*%
%ADD20RoundRect,0.875000X0.875000X0.875000X-0.875000X0.875000X-0.875000X-0.875000X0.875000X-0.875000X0*%
%TD*%
%TA.AperFunction,SMDPad,CuDef*%
%ADD21RoundRect,0.250000X0.250000X0.475000X-0.250000X0.475000X-0.250000X-0.475000X0.250000X-0.475000X0*%
%TD*%
%TA.AperFunction,SMDPad,CuDef*%
%ADD22R,1.500000X2.000000*%
%TD*%
%TA.AperFunction,SMDPad,CuDef*%
%ADD23R,3.800000X2.000000*%
%TD*%
%TA.AperFunction,ComponentPad*%
%ADD24R,1.700000X1.700000*%
%TD*%
%TA.AperFunction,ComponentPad*%
%ADD25O,1.700000X1.700000*%
%TD*%
%TA.AperFunction,SMDPad,CuDef*%
%ADD26RoundRect,0.150000X0.587500X0.150000X-0.587500X0.150000X-0.587500X-0.150000X0.587500X-0.150000X0*%
%TD*%
%TA.AperFunction,SMDPad,CuDef*%
%ADD27R,2.500000X1.000000*%
%TD*%
%TA.AperFunction,SMDPad,CuDef*%
%ADD28R,1.000000X1.800000*%
%TD*%
%TA.AperFunction,ComponentPad*%
%ADD29R,1.350000X1.350000*%
%TD*%
%TA.AperFunction,ComponentPad*%
%ADD30O,1.350000X1.350000*%
%TD*%
%TA.AperFunction,ViaPad*%
%ADD31C,0.800000*%
%TD*%
%TA.AperFunction,ViaPad*%
%ADD32C,0.600000*%
%TD*%
%TA.AperFunction,Conductor*%
%ADD33C,0.500000*%
%TD*%
%TA.AperFunction,Conductor*%
%ADD34C,0.250000*%
%TD*%
%TA.AperFunction,Conductor*%
%ADD35C,0.800000*%
%TD*%
%TA.AperFunction,Conductor*%
%ADD36C,0.300000*%
%TD*%
G04 APERTURE END LIST*
D10*
%TO.P,C2,1*%
%TO.N,/+5V*%
X170650000Y-101980000D03*
%TO.P,C2,2*%
%TO.N,/GND*%
X170650000Y-103880000D03*
%TD*%
D11*
%TO.P,R6,1*%
%TO.N,/RGB-B*%
X142100000Y-100487500D03*
%TO.P,R6,2*%
%TO.N,Net-(Q3-B)*%
X142100000Y-102312500D03*
%TD*%
D12*
%TO.P,C4,1*%
%TO.N,/3V3*%
X168250000Y-107250000D03*
%TO.P,C4,2*%
%TO.N,/GND*%
X168250000Y-104550000D03*
%TD*%
D13*
%TO.P,R3,1*%
%TO.N,/FLS*%
X163685000Y-106630000D03*
%TO.P,R3,2*%
%TO.N,/3V3*%
X165510000Y-106630000D03*
%TD*%
D14*
%TO.P,C1,1*%
%TO.N,/+5V*%
X167467500Y-102440000D03*
%TO.P,C1,2*%
%TO.N,/GND*%
X164767500Y-102440000D03*
%TD*%
D15*
%TO.P,C3,1*%
%TO.N,/3V3*%
X170650000Y-107450000D03*
%TO.P,C3,2*%
%TO.N,/GND*%
X170650000Y-105550000D03*
%TD*%
D16*
%TO.P,R7,1*%
%TO.N,/RGB-G*%
X142100000Y-110012500D03*
%TO.P,R7,2*%
%TO.N,Net-(Q1-B)*%
X142100000Y-108187500D03*
%TD*%
D17*
%TO.P,R2,1*%
%TO.N,/3V3*%
X165530000Y-104680000D03*
%TO.P,R2,2*%
%TO.N,Net-(U1-EN)*%
X163705000Y-104680000D03*
%TD*%
%TO.P,R1,1*%
%TO.N,/3V3*%
X170162500Y-109700000D03*
%TO.P,R1,2*%
%TO.N,/RST*%
X168337500Y-109700000D03*
%TD*%
D13*
%TO.P,R5,1*%
%TO.N,Net-(U1-GPIO15)*%
X163685000Y-110520000D03*
%TO.P,R5,2*%
%TO.N,/GND*%
X165510000Y-110520000D03*
%TD*%
D18*
%TO.P,J3,1,Pin_1*%
%TO.N,/+5V*%
X164710000Y-96307500D03*
D19*
%TO.P,J3,2,Pin_2*%
%TO.N,/GND*%
X170710000Y-96307500D03*
D20*
%TO.P,J3,3,Pin_3*%
X167710000Y-91607500D03*
%TD*%
D21*
%TO.P,C5,1*%
%TO.N,/3V3*%
X142780000Y-113320000D03*
%TO.P,C5,2*%
%TO.N,/GND*%
X140880000Y-113320000D03*
%TD*%
D22*
%TO.P,U2,1,GND*%
%TO.N,/GND*%
X177750000Y-102950000D03*
%TO.P,U2,2,VO*%
%TO.N,/3V3*%
X175450000Y-102950000D03*
D23*
X175450000Y-109250000D03*
D22*
%TO.P,U2,3,VI*%
%TO.N,/+5V*%
X173150000Y-102950000D03*
%TD*%
D24*
%TO.P,J1,1,Pin_1*%
%TO.N,/3V3*%
X177180000Y-113370000D03*
D25*
%TO.P,J1,2,Pin_2*%
%TO.N,/GND*%
X174640000Y-113370000D03*
%TO.P,J1,3,Pin_3*%
%TO.N,/RX*%
X172100000Y-113370000D03*
%TO.P,J1,4,Pin_4*%
%TO.N,/TX*%
X169560000Y-113370000D03*
%TO.P,J1,5,Pin_5*%
%TO.N,/FLS*%
X167020000Y-113370000D03*
%TO.P,J1,6,Pin_6*%
%TO.N,/RST*%
X164480000Y-113370000D03*
%TD*%
D26*
%TO.P,Q3,1,B*%
%TO.N,Net-(Q3-B)*%
X140187500Y-92812500D03*
%TO.P,Q3,2,E*%
%TO.N,/GND*%
X140187500Y-90912500D03*
%TO.P,Q3,3,C*%
%TO.N,/B*%
X138312500Y-91862500D03*
%TD*%
D16*
%TO.P,R8,1*%
%TO.N,/RGB-R*%
X142100000Y-106212500D03*
%TO.P,R8,2*%
%TO.N,Net-(Q2-B)*%
X142100000Y-104387500D03*
%TD*%
D27*
%TO.P,U1,1,~{RST}*%
%TO.N,/RST*%
X145050000Y-98200000D03*
%TO.P,U1,2,ADC*%
%TO.N,unconnected-(U1-ADC-Pad2)*%
X145050000Y-100200000D03*
%TO.P,U1,3,EN*%
%TO.N,Net-(U1-EN)*%
X145050000Y-102200000D03*
%TO.P,U1,4,GPIO16*%
%TO.N,unconnected-(U1-GPIO16-Pad4)*%
X145050000Y-104200000D03*
%TO.P,U1,5,GPIO14*%
%TO.N,/RGB-R*%
X145050000Y-106200000D03*
%TO.P,U1,6,GPIO12*%
%TO.N,/RGB-B*%
X145050000Y-108200000D03*
%TO.P,U1,7,GPIO13*%
%TO.N,/RGB-G*%
X145050000Y-110200000D03*
%TO.P,U1,8,VCC*%
%TO.N,/3V3*%
X145050000Y-112200000D03*
D28*
%TO.P,U1,9,CS0*%
%TO.N,unconnected-(U1-CS0-Pad9)*%
X147650000Y-113700000D03*
%TO.P,U1,10,MISO*%
%TO.N,unconnected-(U1-MISO-Pad10)*%
X149650000Y-113700000D03*
%TO.P,U1,11,GPIO9*%
%TO.N,unconnected-(U1-GPIO9-Pad11)*%
X151650000Y-113700000D03*
%TO.P,U1,12,GPIO10*%
%TO.N,unconnected-(U1-GPIO10-Pad12)*%
X153650000Y-113700000D03*
%TO.P,U1,13,MOSI*%
%TO.N,unconnected-(U1-MOSI-Pad13)*%
X155650000Y-113700000D03*
%TO.P,U1,14,SCLK*%
%TO.N,unconnected-(U1-SCLK-Pad14)*%
X157650000Y-113700000D03*
D27*
%TO.P,U1,15,GND*%
%TO.N,/GND*%
X160250000Y-112200000D03*
%TO.P,U1,16,GPIO15*%
%TO.N,Net-(U1-GPIO15)*%
X160250000Y-110200000D03*
%TO.P,U1,17,GPIO2*%
%TO.N,Net-(U1-GPIO2)*%
X160250000Y-108200000D03*
%TO.P,U1,18,GPIO0*%
%TO.N,/FLS*%
X160250000Y-106200000D03*
%TO.P,U1,19,GPIO4*%
%TO.N,/IR*%
X160250000Y-104200000D03*
%TO.P,U1,20,GPIO5*%
%TO.N,unconnected-(U1-GPIO5-Pad20)*%
X160250000Y-102200000D03*
%TO.P,U1,21,GPIO3/RXD*%
%TO.N,/RX*%
X160250000Y-100200000D03*
%TO.P,U1,22,GPIO1/TXD*%
%TO.N,/TX*%
X160250000Y-98200000D03*
%TD*%
D13*
%TO.P,R4,1*%
%TO.N,Net-(U1-GPIO2)*%
X163685000Y-108580000D03*
%TO.P,R4,2*%
%TO.N,/3V3*%
X165510000Y-108580000D03*
%TD*%
D29*
%TO.P,J4,1,Pin_1*%
%TO.N,/R*%
X138400000Y-113400000D03*
D30*
%TO.P,J4,2,Pin_2*%
%TO.N,/G*%
X138400000Y-111400000D03*
%TO.P,J4,3,Pin_3*%
%TO.N,/B*%
X138400000Y-109400000D03*
%TO.P,J4,4,Pin_4*%
%TO.N,/IR*%
X138400000Y-107400000D03*
%TO.P,J4,5,Pin_5*%
%TO.N,/+5V*%
X138400000Y-105400000D03*
%TO.P,J4,6,Pin_6*%
%TO.N,/GND*%
X138400000Y-103400000D03*
%TD*%
D26*
%TO.P,Q1,1,B*%
%TO.N,Net-(Q1-B)*%
X140137500Y-100850000D03*
%TO.P,Q1,2,E*%
%TO.N,/GND*%
X140137500Y-98950000D03*
%TO.P,Q1,3,C*%
%TO.N,/G*%
X138262500Y-99900000D03*
%TD*%
%TO.P,Q2,1,B*%
%TO.N,Net-(Q2-B)*%
X140187500Y-96812500D03*
%TO.P,Q2,2,E*%
%TO.N,/GND*%
X140187500Y-94912500D03*
%TO.P,Q2,3,C*%
%TO.N,/R*%
X138312500Y-95862500D03*
%TD*%
D31*
%TO.N,/GND*%
X141950000Y-95850000D03*
X168850000Y-99100000D03*
X140700000Y-111600000D03*
X138450000Y-97700000D03*
X167050000Y-108700000D03*
X174050000Y-105700000D03*
X177250000Y-100500000D03*
X142000000Y-91600000D03*
X162600000Y-112050000D03*
%TO.N,/3V3*%
X162210000Y-114150000D03*
X148770000Y-112110000D03*
%TO.N,/RX*%
X158050000Y-100300000D03*
%TO.N,/TX*%
X158050000Y-99100000D03*
%TO.N,/RST*%
X166350000Y-111900000D03*
X148050000Y-99300000D03*
D32*
%TO.N,/G*%
X138200000Y-99900000D03*
D31*
%TO.N,Net-(U1-EN)*%
X147450000Y-102100000D03*
X151860000Y-103830000D03*
%TO.N,Net-(Q2-B)*%
X141850000Y-98400000D03*
X142150000Y-104400000D03*
%TO.N,Net-(Q3-B)*%
X143100000Y-98400000D03*
X142100000Y-102300000D03*
%TD*%
D33*
%TO.N,/+5V*%
X167467500Y-100910000D02*
X169580000Y-100910000D01*
X167467500Y-100910000D02*
X167467500Y-102440000D01*
X165300000Y-98880000D02*
X164710000Y-98290000D01*
X166450000Y-98880000D02*
X167467500Y-99897500D01*
X166450000Y-98880000D02*
X165300000Y-98880000D01*
X164710000Y-98290000D02*
X164710000Y-96307500D01*
X170650000Y-101980000D02*
X172180000Y-101980000D01*
X172180000Y-101980000D02*
X173150000Y-102950000D01*
X169580000Y-100910000D02*
X170650000Y-101980000D01*
X167467500Y-99897500D02*
X167467500Y-100910000D01*
D34*
%TO.N,/GND*%
X140187500Y-90912500D02*
X140275000Y-91000000D01*
X140200000Y-90900000D02*
X140187500Y-90912500D01*
D33*
%TO.N,/3V3*%
X176820000Y-114770000D02*
X177180000Y-114410000D01*
X170162500Y-109700000D02*
X170162500Y-108787500D01*
X172050000Y-109700000D02*
X170162500Y-109700000D01*
X170650000Y-108300000D02*
X170650000Y-107450000D01*
X175720000Y-111190000D02*
X175450000Y-110920000D01*
X170650000Y-107450000D02*
X168450000Y-107450000D01*
X177180000Y-113370000D02*
X177180000Y-111930000D01*
X176440000Y-111190000D02*
X175720000Y-111190000D01*
X175450000Y-109250000D02*
X172500000Y-109250000D01*
X145050000Y-113090000D02*
X144820000Y-113320000D01*
X165510000Y-106630000D02*
X165510000Y-108580000D01*
X168450000Y-107450000D02*
X168250000Y-107250000D01*
X165530000Y-104680000D02*
X165530000Y-106610000D01*
X172500000Y-109250000D02*
X172050000Y-109700000D01*
D34*
X165530000Y-106610000D02*
X165510000Y-106630000D01*
D33*
X166130000Y-107250000D02*
X165510000Y-106630000D01*
X162830000Y-114770000D02*
X176820000Y-114770000D01*
X145050000Y-112200000D02*
X145050000Y-113090000D01*
X168250000Y-107250000D02*
X166130000Y-107250000D01*
X162210000Y-114150000D02*
X162830000Y-114770000D01*
X175450000Y-110920000D02*
X175450000Y-109250000D01*
X170162500Y-108787500D02*
X170650000Y-108300000D01*
X177180000Y-114410000D02*
X177180000Y-113370000D01*
X145140000Y-112110000D02*
X145050000Y-112200000D01*
X148770000Y-112110000D02*
X145140000Y-112110000D01*
X144820000Y-113320000D02*
X142780000Y-113320000D01*
D35*
X175450000Y-102950000D02*
X175450000Y-109250000D01*
D33*
X177180000Y-111930000D02*
X176440000Y-111190000D01*
D34*
%TO.N,/RX*%
X158350000Y-100200000D02*
X158050000Y-100300000D01*
X160250000Y-100200000D02*
X158350000Y-100200000D01*
X158050000Y-100300000D02*
X158250000Y-100300000D01*
%TO.N,/TX*%
X158050000Y-99100000D02*
X158950000Y-98200000D01*
X158950000Y-98200000D02*
X160250000Y-98200000D01*
%TO.N,/FLS*%
X162540000Y-106740000D02*
X162000000Y-106200000D01*
X163685000Y-106630000D02*
X163575000Y-106740000D01*
X164620000Y-106880000D02*
X164370000Y-106630000D01*
X164370000Y-106630000D02*
X163685000Y-106630000D01*
X162000000Y-106200000D02*
X160250000Y-106200000D01*
X163575000Y-106740000D02*
X162540000Y-106740000D01*
X167040000Y-112900000D02*
X166280000Y-112900000D01*
X166280000Y-112900000D02*
X164620000Y-111240000D01*
X164620000Y-111240000D02*
X164620000Y-106880000D01*
%TO.N,/RST*%
X168337500Y-109700000D02*
X168337500Y-110072500D01*
X168337500Y-110072500D02*
X166350000Y-111900000D01*
X146950000Y-98200000D02*
X145050000Y-98200000D01*
X148050000Y-99300000D02*
X146950000Y-98200000D01*
D36*
%TO.N,/R*%
X136750000Y-111750000D02*
X138400000Y-113400000D01*
X138312500Y-95862500D02*
X136750000Y-97425000D01*
X136750000Y-97425000D02*
X136750000Y-111750000D01*
%TO.N,/B*%
X138400000Y-109400000D02*
X139600000Y-110600000D01*
X136300000Y-114300000D02*
X136300000Y-93875000D01*
X139600000Y-114400000D02*
X139200000Y-114800000D01*
X139600000Y-110600000D02*
X139600000Y-114400000D01*
X136300000Y-93875000D02*
X138312500Y-91862500D01*
X136800000Y-114800000D02*
X136300000Y-114300000D01*
X139200000Y-114800000D02*
X136800000Y-114800000D01*
D34*
%TO.N,/IR*%
X153200000Y-104200000D02*
X160250000Y-104200000D01*
X148400000Y-109000000D02*
X153200000Y-104200000D01*
X140100000Y-108600000D02*
X140700000Y-109200000D01*
X140700000Y-110500000D02*
X141400000Y-111200000D01*
X138400000Y-107400000D02*
X138400000Y-107838173D01*
X141400000Y-111200000D02*
X147225305Y-111200000D01*
X148400000Y-110025305D02*
X148400000Y-109000000D01*
X139161827Y-108600000D02*
X140100000Y-108600000D01*
X138400000Y-107838173D02*
X139161827Y-108600000D01*
X147225305Y-111200000D02*
X148400000Y-110025305D01*
X140700000Y-109200000D02*
X140700000Y-110500000D01*
%TO.N,Net-(U1-EN)*%
X163705000Y-103675000D02*
X163230000Y-103200000D01*
X145150000Y-102100000D02*
X145050000Y-102200000D01*
X152490000Y-103200000D02*
X151860000Y-103830000D01*
X147450000Y-102100000D02*
X145150000Y-102100000D01*
X163705000Y-104680000D02*
X163705000Y-103675000D01*
X163230000Y-103200000D02*
X152490000Y-103200000D01*
%TO.N,Net-(U1-GPIO2)*%
X160420000Y-108370000D02*
X160250000Y-108200000D01*
X163420000Y-108370000D02*
X160420000Y-108370000D01*
%TO.N,Net-(U1-GPIO15)*%
X162480000Y-110540000D02*
X162140000Y-110200000D01*
X163685000Y-110540000D02*
X162480000Y-110540000D01*
X162140000Y-110200000D02*
X160250000Y-110200000D01*
%TO.N,Net-(Q1-B)*%
X140137500Y-106225000D02*
X140137500Y-100850000D01*
X142100000Y-108187500D02*
X140137500Y-106225000D01*
%TO.N,Net-(Q2-B)*%
X141550000Y-96800000D02*
X141537500Y-96812500D01*
X141850000Y-98400000D02*
X141850000Y-97100000D01*
X141537500Y-96812500D02*
X140187500Y-96812500D01*
X141850000Y-97100000D02*
X141550000Y-96800000D01*
%TO.N,Net-(Q3-B)*%
X143100000Y-98400000D02*
X143100000Y-95725000D01*
X143100000Y-95725000D02*
X140187500Y-92812500D01*
%TO.N,/RGB-B*%
X145050000Y-108200000D02*
X148150000Y-108200000D01*
X142300000Y-99200000D02*
X142100000Y-99400000D01*
X146450000Y-99200000D02*
X142300000Y-99200000D01*
X142100000Y-99400000D02*
X142100000Y-100487500D01*
X148150000Y-108200000D02*
X148800000Y-107550000D01*
X148800000Y-107550000D02*
X148800000Y-101550000D01*
X148800000Y-101550000D02*
X146450000Y-99200000D01*
%TO.N,/RGB-G*%
X142287500Y-110200000D02*
X142100000Y-110012500D01*
X145050000Y-110200000D02*
X142287500Y-110200000D01*
%TO.N,/RGB-R*%
X145050000Y-106200000D02*
X142112500Y-106200000D01*
X142112500Y-106200000D02*
X142100000Y-106212500D01*
%TD*%
%TA.AperFunction,Conductor*%
%TO.N,/GND*%
G36*
X158493572Y-104845185D02*
G01*
X158539327Y-104897989D01*
X158542715Y-104906166D01*
X158556203Y-104942330D01*
X158556206Y-104942335D01*
X158642452Y-105057544D01*
X158642453Y-105057544D01*
X158642454Y-105057546D01*
X158670814Y-105078776D01*
X158700145Y-105100734D01*
X158742015Y-105156668D01*
X158746999Y-105226360D01*
X158713513Y-105287683D01*
X158700145Y-105299266D01*
X158642452Y-105342455D01*
X158556206Y-105457664D01*
X158556202Y-105457671D01*
X158505908Y-105592517D01*
X158500931Y-105638818D01*
X158499501Y-105652123D01*
X158499500Y-105652135D01*
X158499500Y-106747870D01*
X158499501Y-106747876D01*
X158505908Y-106807483D01*
X158556202Y-106942328D01*
X158556206Y-106942335D01*
X158642452Y-107057544D01*
X158642453Y-107057544D01*
X158642454Y-107057546D01*
X158649689Y-107062962D01*
X158700145Y-107100734D01*
X158742015Y-107156668D01*
X158746999Y-107226360D01*
X158713513Y-107287683D01*
X158700145Y-107299266D01*
X158642452Y-107342455D01*
X158556206Y-107457664D01*
X158556202Y-107457671D01*
X158505908Y-107592517D01*
X158499501Y-107652116D01*
X158499500Y-107652135D01*
X158499500Y-108747870D01*
X158499501Y-108747876D01*
X158505908Y-108807483D01*
X158556202Y-108942328D01*
X158556206Y-108942335D01*
X158642452Y-109057544D01*
X158642453Y-109057544D01*
X158642454Y-109057546D01*
X158656404Y-109067989D01*
X158700145Y-109100734D01*
X158742015Y-109156668D01*
X158746999Y-109226360D01*
X158713513Y-109287683D01*
X158700145Y-109299266D01*
X158642452Y-109342455D01*
X158556206Y-109457664D01*
X158556202Y-109457671D01*
X158505908Y-109592517D01*
X158500931Y-109638818D01*
X158499501Y-109652123D01*
X158499500Y-109652135D01*
X158499500Y-110747870D01*
X158499501Y-110747876D01*
X158505908Y-110807483D01*
X158556202Y-110942328D01*
X158556206Y-110942335D01*
X158642452Y-111057544D01*
X158642453Y-111057544D01*
X158642454Y-111057546D01*
X158662819Y-111072791D01*
X158700562Y-111101046D01*
X158742432Y-111156980D01*
X158747416Y-111226672D01*
X158713930Y-111287994D01*
X158700562Y-111299578D01*
X158642809Y-111342812D01*
X158556649Y-111457906D01*
X158556645Y-111457913D01*
X158506403Y-111592620D01*
X158506401Y-111592627D01*
X158500000Y-111652155D01*
X158500000Y-111950000D01*
X162000000Y-111950000D01*
X162000000Y-111652172D01*
X161999999Y-111652155D01*
X161993598Y-111592627D01*
X161993596Y-111592620D01*
X161943354Y-111457913D01*
X161943350Y-111457906D01*
X161857190Y-111342812D01*
X161857187Y-111342809D01*
X161799438Y-111299578D01*
X161757567Y-111243645D01*
X161752583Y-111173953D01*
X161786069Y-111112630D01*
X161799432Y-111101049D01*
X161857546Y-111057546D01*
X161881131Y-111026039D01*
X161937064Y-110984168D01*
X162006756Y-110979184D01*
X162061342Y-111008990D01*
X162062356Y-111007840D01*
X162062445Y-111007727D01*
X162062452Y-111007732D01*
X162062614Y-111007549D01*
X162065527Y-111010117D01*
X162065530Y-111010120D01*
X162071004Y-111014366D01*
X162075442Y-111018156D01*
X162109418Y-111050062D01*
X162109422Y-111050064D01*
X162126973Y-111059713D01*
X162143231Y-111070392D01*
X162159064Y-111082674D01*
X162181015Y-111092172D01*
X162201837Y-111101183D01*
X162207081Y-111103752D01*
X162247908Y-111126197D01*
X162267312Y-111131179D01*
X162285710Y-111137478D01*
X162304105Y-111145438D01*
X162350129Y-111152726D01*
X162355832Y-111153907D01*
X162400981Y-111165500D01*
X162421016Y-111165500D01*
X162440413Y-111167026D01*
X162460196Y-111170160D01*
X162506583Y-111165775D01*
X162512422Y-111165500D01*
X162607110Y-111165500D01*
X162674149Y-111185185D01*
X162719904Y-111237989D01*
X162724815Y-111250493D01*
X162737686Y-111289334D01*
X162829788Y-111438656D01*
X162953844Y-111562712D01*
X163103166Y-111654814D01*
X163269703Y-111709999D01*
X163372491Y-111720500D01*
X163997508Y-111720499D01*
X163997516Y-111720498D01*
X163997519Y-111720498D01*
X164021396Y-111718058D01*
X164100297Y-111709999D01*
X164106646Y-111707894D01*
X164176473Y-111705493D01*
X164233330Y-111737920D01*
X164319325Y-111823915D01*
X164352810Y-111885238D01*
X164347826Y-111954930D01*
X164305954Y-112010863D01*
X164249636Y-112032383D01*
X164249921Y-112033998D01*
X164244586Y-112034938D01*
X164016344Y-112096094D01*
X164016335Y-112096098D01*
X163802171Y-112195964D01*
X163802169Y-112195965D01*
X163608597Y-112331505D01*
X163441505Y-112498597D01*
X163305965Y-112692169D01*
X163305964Y-112692171D01*
X163206098Y-112906335D01*
X163206094Y-112906344D01*
X163144938Y-113134586D01*
X163144936Y-113134596D01*
X163124341Y-113369999D01*
X163124341Y-113370002D01*
X163135619Y-113498915D01*
X163121852Y-113567415D01*
X163073237Y-113617598D01*
X163005208Y-113633531D01*
X162939365Y-113610155D01*
X162919945Y-113592697D01*
X162815871Y-113477112D01*
X162767391Y-113441889D01*
X162662734Y-113365851D01*
X162662729Y-113365848D01*
X162489807Y-113288857D01*
X162489802Y-113288855D01*
X162328108Y-113254487D01*
X162304646Y-113249500D01*
X162115354Y-113249500D01*
X161998877Y-113274257D01*
X161947292Y-113285222D01*
X161877625Y-113279905D01*
X161821892Y-113237767D01*
X161797787Y-113172187D01*
X161812964Y-113103986D01*
X161847206Y-113064661D01*
X161857190Y-113057187D01*
X161943350Y-112942093D01*
X161943354Y-112942086D01*
X161993596Y-112807379D01*
X161993598Y-112807372D01*
X161999999Y-112747844D01*
X162000000Y-112747827D01*
X162000000Y-112450000D01*
X160500000Y-112450000D01*
X160500000Y-113200000D01*
X161547828Y-113200000D01*
X161547842Y-113199999D01*
X161599237Y-113194473D01*
X161667997Y-113206877D01*
X161719135Y-113254487D01*
X161736415Y-113322186D01*
X161714351Y-113388481D01*
X161685380Y-113418080D01*
X161604127Y-113477113D01*
X161477466Y-113617785D01*
X161382821Y-113781715D01*
X161382818Y-113781722D01*
X161327156Y-113953034D01*
X161324326Y-113961744D01*
X161312392Y-114075289D01*
X161304593Y-114149500D01*
X161304540Y-114150000D01*
X161324326Y-114338256D01*
X161324327Y-114338259D01*
X161382818Y-114518277D01*
X161382821Y-114518284D01*
X161477467Y-114682216D01*
X161553630Y-114766803D01*
X161604129Y-114822888D01*
X161757265Y-114934148D01*
X161757270Y-114934151D01*
X161930191Y-115011142D01*
X161930197Y-115011144D01*
X161991668Y-115024210D01*
X162053150Y-115057402D01*
X162086926Y-115118565D01*
X162082274Y-115188280D01*
X162040669Y-115244412D01*
X161975322Y-115269141D01*
X161965887Y-115269500D01*
X158463386Y-115269500D01*
X158396347Y-115249815D01*
X158350592Y-115197011D01*
X158340648Y-115127853D01*
X158369673Y-115064297D01*
X158389075Y-115046233D01*
X158392329Y-115043796D01*
X158392331Y-115043796D01*
X158507546Y-114957546D01*
X158593796Y-114842331D01*
X158644091Y-114707483D01*
X158650500Y-114647873D01*
X158650499Y-113281883D01*
X158670184Y-113214845D01*
X158722987Y-113169090D01*
X158792146Y-113159146D01*
X158817833Y-113165702D01*
X158892623Y-113193597D01*
X158892627Y-113193598D01*
X158952155Y-113199999D01*
X158952172Y-113200000D01*
X160000000Y-113200000D01*
X160000000Y-112450000D01*
X158558897Y-112450000D01*
X158491858Y-112430315D01*
X158484596Y-112425273D01*
X158392331Y-112356204D01*
X158392328Y-112356202D01*
X158257482Y-112305908D01*
X158257483Y-112305908D01*
X158197883Y-112299501D01*
X158197881Y-112299500D01*
X158197873Y-112299500D01*
X158197864Y-112299500D01*
X157102129Y-112299500D01*
X157102123Y-112299501D01*
X157042516Y-112305908D01*
X156907671Y-112356202D01*
X156907664Y-112356206D01*
X156792455Y-112442452D01*
X156749266Y-112500145D01*
X156693332Y-112542015D01*
X156623640Y-112546999D01*
X156562317Y-112513513D01*
X156550734Y-112500145D01*
X156513195Y-112450000D01*
X156507546Y-112442454D01*
X156507544Y-112442453D01*
X156507544Y-112442452D01*
X156392335Y-112356206D01*
X156392328Y-112356202D01*
X156257482Y-112305908D01*
X156257483Y-112305908D01*
X156197883Y-112299501D01*
X156197881Y-112299500D01*
X156197873Y-112299500D01*
X156197864Y-112299500D01*
X155102129Y-112299500D01*
X155102123Y-112299501D01*
X155042516Y-112305908D01*
X154907671Y-112356202D01*
X154907664Y-112356206D01*
X154792455Y-112442452D01*
X154749266Y-112500145D01*
X154693332Y-112542015D01*
X154623640Y-112546999D01*
X154562317Y-112513513D01*
X154550734Y-112500145D01*
X154513195Y-112450000D01*
X154507546Y-112442454D01*
X154507544Y-112442453D01*
X154507544Y-112442452D01*
X154392335Y-112356206D01*
X154392328Y-112356202D01*
X154257482Y-112305908D01*
X154257483Y-112305908D01*
X154197883Y-112299501D01*
X154197881Y-112299500D01*
X154197873Y-112299500D01*
X154197864Y-112299500D01*
X153102129Y-112299500D01*
X153102123Y-112299501D01*
X153042516Y-112305908D01*
X152907671Y-112356202D01*
X152907664Y-112356206D01*
X152792455Y-112442452D01*
X152749266Y-112500145D01*
X152693332Y-112542015D01*
X152623640Y-112546999D01*
X152562317Y-112513513D01*
X152550734Y-112500145D01*
X152513195Y-112450000D01*
X152507546Y-112442454D01*
X152507544Y-112442453D01*
X152507544Y-112442452D01*
X152392335Y-112356206D01*
X152392328Y-112356202D01*
X152257482Y-112305908D01*
X152257483Y-112305908D01*
X152197883Y-112299501D01*
X152197881Y-112299500D01*
X152197873Y-112299500D01*
X152197864Y-112299500D01*
X151102129Y-112299500D01*
X151102123Y-112299501D01*
X151042516Y-112305908D01*
X150907671Y-112356202D01*
X150907664Y-112356206D01*
X150792455Y-112442452D01*
X150749266Y-112500145D01*
X150693332Y-112542015D01*
X150623640Y-112546999D01*
X150562317Y-112513513D01*
X150550734Y-112500145D01*
X150513195Y-112450000D01*
X150507546Y-112442454D01*
X150507544Y-112442453D01*
X150507544Y-112442452D01*
X150392335Y-112356206D01*
X150392328Y-112356202D01*
X150257482Y-112305908D01*
X150257483Y-112305908D01*
X150197883Y-112299501D01*
X150197881Y-112299500D01*
X150197873Y-112299500D01*
X150197865Y-112299500D01*
X149793259Y-112299500D01*
X149726220Y-112279815D01*
X149680465Y-112227011D01*
X149669938Y-112162539D01*
X149670137Y-112160643D01*
X149675460Y-112110000D01*
X149655674Y-111921744D01*
X149597179Y-111741716D01*
X149502533Y-111577784D01*
X149375871Y-111437112D01*
X149375870Y-111437111D01*
X149222734Y-111325851D01*
X149222729Y-111325848D01*
X149049807Y-111248857D01*
X149049802Y-111248855D01*
X148904001Y-111217865D01*
X148864646Y-111209500D01*
X148675354Y-111209500D01*
X148625375Y-111220123D01*
X148490199Y-111248855D01*
X148327819Y-111321152D01*
X148258569Y-111330436D01*
X148195292Y-111300808D01*
X148158079Y-111241673D01*
X148158744Y-111171806D01*
X148189699Y-111120195D01*
X148783786Y-110526107D01*
X148796048Y-110516285D01*
X148795865Y-110516064D01*
X148801867Y-110511097D01*
X148801877Y-110511091D01*
X148849241Y-110460653D01*
X148870120Y-110439775D01*
X148874373Y-110434291D01*
X148878150Y-110429868D01*
X148910062Y-110395887D01*
X148919714Y-110378328D01*
X148930389Y-110362077D01*
X148942674Y-110346241D01*
X148961186Y-110303457D01*
X148963742Y-110298240D01*
X148986197Y-110257397D01*
X148991180Y-110237985D01*
X148997477Y-110219596D01*
X149005438Y-110201200D01*
X149012729Y-110155158D01*
X149013908Y-110149467D01*
X149025500Y-110104324D01*
X149025500Y-110084288D01*
X149027027Y-110064887D01*
X149030160Y-110045109D01*
X149025775Y-109998720D01*
X149025500Y-109992882D01*
X149025500Y-109310452D01*
X149045185Y-109243413D01*
X149061819Y-109222771D01*
X153422772Y-104861819D01*
X153484095Y-104828334D01*
X153510453Y-104825500D01*
X158426533Y-104825500D01*
X158493572Y-104845185D01*
G37*
%TD.AperFunction*%
%TA.AperFunction,Conductor*%
G36*
X179072539Y-89440185D02*
G01*
X179118294Y-89492989D01*
X179129500Y-89544500D01*
X179129500Y-101584014D01*
X179109815Y-101651053D01*
X179057011Y-101696808D01*
X178987853Y-101706752D01*
X178924297Y-101677727D01*
X178906234Y-101658326D01*
X178857187Y-101592809D01*
X178742093Y-101506649D01*
X178742086Y-101506645D01*
X178607379Y-101456403D01*
X178607372Y-101456401D01*
X178547844Y-101450000D01*
X178000000Y-101450000D01*
X178000000Y-104450000D01*
X178547828Y-104450000D01*
X178547844Y-104449999D01*
X178607372Y-104443598D01*
X178607379Y-104443596D01*
X178742086Y-104393354D01*
X178742093Y-104393350D01*
X178857186Y-104307190D01*
X178906233Y-104241674D01*
X178962167Y-104199803D01*
X179031859Y-104194819D01*
X179093182Y-104228304D01*
X179126666Y-104289628D01*
X179129500Y-104315985D01*
X179129500Y-115145500D01*
X179109815Y-115212539D01*
X179057011Y-115258294D01*
X179005500Y-115269500D01*
X177681229Y-115269500D01*
X177614190Y-115249815D01*
X177568435Y-115197011D01*
X177558491Y-115127853D01*
X177587516Y-115064297D01*
X177593529Y-115057837D01*
X177665648Y-114985718D01*
X177679271Y-114973947D01*
X177698530Y-114959610D01*
X177732101Y-114919601D01*
X177735761Y-114915606D01*
X177741590Y-114909778D01*
X177761941Y-114884039D01*
X177787986Y-114853000D01*
X177811302Y-114825214D01*
X177811306Y-114825205D01*
X177815274Y-114819175D01*
X177815325Y-114819208D01*
X177819372Y-114812856D01*
X177819320Y-114812824D01*
X177823113Y-114806674D01*
X177829913Y-114792093D01*
X177876086Y-114739654D01*
X177942294Y-114720499D01*
X178077871Y-114720499D01*
X178077872Y-114720499D01*
X178137483Y-114714091D01*
X178272331Y-114663796D01*
X178387546Y-114577546D01*
X178473796Y-114462331D01*
X178524091Y-114327483D01*
X178530500Y-114267873D01*
X178530499Y-112472128D01*
X178524091Y-112412517D01*
X178523002Y-112409598D01*
X178473797Y-112277671D01*
X178473793Y-112277664D01*
X178387547Y-112162455D01*
X178387544Y-112162452D01*
X178272335Y-112076206D01*
X178272328Y-112076202D01*
X178137482Y-112025908D01*
X178137483Y-112025908D01*
X178077883Y-112019501D01*
X178077881Y-112019500D01*
X178077873Y-112019500D01*
X178077865Y-112019500D01*
X178054822Y-112019500D01*
X177987783Y-111999815D01*
X177942028Y-111947011D01*
X177931294Y-111906315D01*
X177930968Y-111902586D01*
X177930735Y-111899926D01*
X177930500Y-111894530D01*
X177930500Y-111886297D01*
X177930500Y-111886291D01*
X177926693Y-111853724D01*
X177924358Y-111827027D01*
X177919999Y-111777201D01*
X177918539Y-111770129D01*
X177918597Y-111770116D01*
X177916965Y-111762757D01*
X177916906Y-111762772D01*
X177915241Y-111755751D01*
X177915241Y-111755745D01*
X177898591Y-111709998D01*
X177888974Y-111683575D01*
X177864813Y-111610663D01*
X177861764Y-111604124D01*
X177861817Y-111604099D01*
X177858531Y-111597311D01*
X177858479Y-111597338D01*
X177855236Y-111590882D01*
X177850570Y-111583788D01*
X177813034Y-111526716D01*
X177772712Y-111461344D01*
X177772710Y-111461342D01*
X177768234Y-111455681D01*
X177768280Y-111455643D01*
X177763519Y-111449799D01*
X177763474Y-111449838D01*
X177758834Y-111444308D01*
X177752844Y-111438657D01*
X177748531Y-111434587D01*
X177702982Y-111391613D01*
X177273548Y-110962180D01*
X177240063Y-110900857D01*
X177245047Y-110831166D01*
X177286918Y-110775232D01*
X177352383Y-110750815D01*
X177361229Y-110750499D01*
X177397871Y-110750499D01*
X177397872Y-110750499D01*
X177457483Y-110744091D01*
X177592331Y-110693796D01*
X177707546Y-110607546D01*
X177793796Y-110492331D01*
X177844091Y-110357483D01*
X177850500Y-110297873D01*
X177850499Y-108202128D01*
X177845299Y-108153757D01*
X177844091Y-108142516D01*
X177793797Y-108007671D01*
X177793793Y-108007664D01*
X177707547Y-107892455D01*
X177707544Y-107892452D01*
X177592335Y-107806206D01*
X177592328Y-107806202D01*
X177457482Y-107755908D01*
X177457483Y-107755908D01*
X177397883Y-107749501D01*
X177397881Y-107749500D01*
X177397873Y-107749500D01*
X177397865Y-107749500D01*
X176474500Y-107749500D01*
X176407461Y-107729815D01*
X176361706Y-107677011D01*
X176350500Y-107625500D01*
X176350500Y-104514141D01*
X176370185Y-104447102D01*
X176422989Y-104401347D01*
X176431149Y-104397966D01*
X176442331Y-104393796D01*
X176526105Y-104331082D01*
X176591569Y-104306665D01*
X176659842Y-104321516D01*
X176674727Y-104331082D01*
X176757910Y-104393352D01*
X176757913Y-104393354D01*
X176892620Y-104443596D01*
X176892627Y-104443598D01*
X176952155Y-104449999D01*
X176952172Y-104450000D01*
X177500000Y-104450000D01*
X177500000Y-101450000D01*
X176952155Y-101450000D01*
X176892627Y-101456401D01*
X176892620Y-101456403D01*
X176757913Y-101506645D01*
X176757910Y-101506647D01*
X176674727Y-101568918D01*
X176609262Y-101593335D01*
X176540989Y-101578483D01*
X176526106Y-101568918D01*
X176442331Y-101506204D01*
X176442328Y-101506202D01*
X176307482Y-101455908D01*
X176307483Y-101455908D01*
X176247883Y-101449501D01*
X176247881Y-101449500D01*
X176247873Y-101449500D01*
X176247864Y-101449500D01*
X174652129Y-101449500D01*
X174652123Y-101449501D01*
X174592516Y-101455908D01*
X174457671Y-101506202D01*
X174457669Y-101506203D01*
X174374311Y-101568606D01*
X174308847Y-101593023D01*
X174240574Y-101578172D01*
X174225689Y-101568606D01*
X174142330Y-101506203D01*
X174142328Y-101506202D01*
X174007482Y-101455908D01*
X174007483Y-101455908D01*
X173947883Y-101449501D01*
X173947881Y-101449500D01*
X173947873Y-101449500D01*
X173947865Y-101449500D01*
X172761900Y-101449500D01*
X172694861Y-101429815D01*
X172682671Y-101420565D01*
X172682607Y-101420647D01*
X172658853Y-101401865D01*
X172654040Y-101398059D01*
X172595214Y-101348698D01*
X172595213Y-101348697D01*
X172595209Y-101348694D01*
X172589180Y-101344729D01*
X172589212Y-101344680D01*
X172582853Y-101340628D01*
X172582822Y-101340679D01*
X172576680Y-101336891D01*
X172576678Y-101336890D01*
X172576677Y-101336889D01*
X172531562Y-101315851D01*
X172507058Y-101304424D01*
X172472894Y-101287267D01*
X172438433Y-101269960D01*
X172438431Y-101269959D01*
X172438430Y-101269959D01*
X172431645Y-101267489D01*
X172431665Y-101267433D01*
X172424549Y-101264959D01*
X172424531Y-101265015D01*
X172417671Y-101262742D01*
X172386005Y-101256204D01*
X172342434Y-101247207D01*
X172293472Y-101235603D01*
X172267719Y-101229499D01*
X172260547Y-101228661D01*
X172260553Y-101228601D01*
X172253055Y-101227835D01*
X172253050Y-101227895D01*
X172245860Y-101227265D01*
X172169083Y-101229500D01*
X171737230Y-101229500D01*
X171670191Y-101209815D01*
X171649549Y-101193181D01*
X171593657Y-101137289D01*
X171593656Y-101137288D01*
X171444334Y-101045186D01*
X171277797Y-100990001D01*
X171277795Y-100990000D01*
X171175016Y-100979500D01*
X171175009Y-100979500D01*
X170762229Y-100979500D01*
X170695190Y-100959815D01*
X170674548Y-100943181D01*
X170428965Y-100697598D01*
X170155729Y-100424361D01*
X170143949Y-100410730D01*
X170136482Y-100400701D01*
X170129612Y-100391472D01*
X170129610Y-100391470D01*
X170089587Y-100357886D01*
X170085612Y-100354244D01*
X170082690Y-100351322D01*
X170079780Y-100348411D01*
X170054040Y-100328059D01*
X169995209Y-100278694D01*
X169989180Y-100274729D01*
X169989212Y-100274680D01*
X169982853Y-100270628D01*
X169982822Y-100270679D01*
X169976680Y-100266891D01*
X169976678Y-100266890D01*
X169976677Y-100266889D01*
X169937474Y-100248608D01*
X169907058Y-100234424D01*
X169872894Y-100217267D01*
X169838433Y-100199960D01*
X169838431Y-100199959D01*
X169838430Y-100199959D01*
X169831645Y-100197489D01*
X169831665Y-100197433D01*
X169824549Y-100194959D01*
X169824531Y-100195015D01*
X169817671Y-100192742D01*
X169789841Y-100186996D01*
X169742434Y-100177207D01*
X169691839Y-100165216D01*
X169667719Y-100159499D01*
X169660547Y-100158661D01*
X169660553Y-100158601D01*
X169653055Y-100157835D01*
X169653050Y-100157895D01*
X169645860Y-100157265D01*
X169569083Y-100159500D01*
X168341999Y-100159500D01*
X168274960Y-100139815D01*
X168229205Y-100087011D01*
X168217999Y-100035500D01*
X168217999Y-99961204D01*
X168219309Y-99943229D01*
X168220996Y-99931715D01*
X168222789Y-99919477D01*
X168218235Y-99867433D01*
X168218000Y-99862032D01*
X168218000Y-99853797D01*
X168218000Y-99853796D01*
X168218000Y-99853791D01*
X168214191Y-99821207D01*
X168207498Y-99744702D01*
X168207496Y-99744697D01*
X168206038Y-99737633D01*
X168206097Y-99737620D01*
X168204467Y-99730264D01*
X168204408Y-99730279D01*
X168202742Y-99723253D01*
X168202741Y-99723245D01*
X168176473Y-99651073D01*
X168172580Y-99639325D01*
X168152315Y-99578166D01*
X168149263Y-99571621D01*
X168149317Y-99571595D01*
X168146033Y-99564812D01*
X168145980Y-99564840D01*
X168142738Y-99558386D01*
X168142737Y-99558383D01*
X168100538Y-99494223D01*
X168060212Y-99428844D01*
X168060211Y-99428843D01*
X168060210Y-99428841D01*
X168055734Y-99423181D01*
X168055780Y-99423143D01*
X168051019Y-99417299D01*
X168050974Y-99417338D01*
X168046334Y-99411808D01*
X167990482Y-99359113D01*
X167025729Y-98394361D01*
X167013949Y-98380730D01*
X166999610Y-98361470D01*
X166999607Y-98361468D01*
X166999607Y-98361467D01*
X166976198Y-98341824D01*
X166937496Y-98283652D01*
X166936389Y-98213791D01*
X166939724Y-98203502D01*
X166954090Y-98164985D01*
X166954091Y-98164983D01*
X166960500Y-98105373D01*
X166960499Y-96057500D01*
X168710000Y-96057500D01*
X170210000Y-96057500D01*
X170210000Y-96557500D01*
X168710001Y-96557500D01*
X168710001Y-97371692D01*
X168720400Y-97503832D01*
X168775377Y-97722019D01*
X168868428Y-97926874D01*
X168868431Y-97926880D01*
X168996559Y-98111823D01*
X168996569Y-98111835D01*
X169155664Y-98270930D01*
X169155676Y-98270940D01*
X169340619Y-98399068D01*
X169340625Y-98399071D01*
X169545480Y-98492122D01*
X169763667Y-98547099D01*
X169895807Y-98557500D01*
X170459999Y-98557499D01*
X170460000Y-98557498D01*
X170460000Y-97741186D01*
X170500156Y-97766993D01*
X170638111Y-97807500D01*
X170781889Y-97807500D01*
X170919844Y-97766993D01*
X170960000Y-97741186D01*
X170960000Y-98557499D01*
X171524192Y-98557499D01*
X171656332Y-98547099D01*
X171874519Y-98492122D01*
X172079374Y-98399071D01*
X172079380Y-98399068D01*
X172264323Y-98270940D01*
X172264335Y-98270930D01*
X172423430Y-98111835D01*
X172423440Y-98111823D01*
X172551568Y-97926880D01*
X172551571Y-97926874D01*
X172644622Y-97722019D01*
X172699599Y-97503832D01*
X172710000Y-97371694D01*
X172710000Y-96557500D01*
X171210000Y-96557500D01*
X171210000Y-96057500D01*
X172709999Y-96057500D01*
X172709999Y-95243308D01*
X172699599Y-95111167D01*
X172644622Y-94892980D01*
X172551571Y-94688125D01*
X172551568Y-94688119D01*
X172423440Y-94503176D01*
X172423430Y-94503164D01*
X172264335Y-94344069D01*
X172264323Y-94344059D01*
X172079380Y-94215931D01*
X172079374Y-94215928D01*
X171874519Y-94122877D01*
X171656332Y-94067900D01*
X171524194Y-94057500D01*
X170960000Y-94057500D01*
X170960000Y-94873813D01*
X170919844Y-94848007D01*
X170781889Y-94807500D01*
X170638111Y-94807500D01*
X170500156Y-94848007D01*
X170460000Y-94873813D01*
X170460000Y-94057500D01*
X170459999Y-94057500D01*
X169895808Y-94057501D01*
X169763667Y-94067900D01*
X169545480Y-94122877D01*
X169340625Y-94215928D01*
X169340619Y-94215931D01*
X169155676Y-94344059D01*
X169155664Y-94344069D01*
X168996569Y-94503164D01*
X168996559Y-94503176D01*
X168868431Y-94688119D01*
X168868428Y-94688125D01*
X168775377Y-94892980D01*
X168720400Y-95111167D01*
X168710000Y-95243306D01*
X168710000Y-96057500D01*
X166960499Y-96057500D01*
X166960499Y-94509628D01*
X166954091Y-94450017D01*
X166914571Y-94344059D01*
X166903797Y-94315171D01*
X166903793Y-94315164D01*
X166817547Y-94199955D01*
X166817544Y-94199952D01*
X166702335Y-94113706D01*
X166702328Y-94113702D01*
X166653492Y-94095488D01*
X166597558Y-94053617D01*
X166573141Y-93988153D01*
X166587992Y-93919880D01*
X166637397Y-93870474D01*
X166703404Y-93855481D01*
X166741408Y-93857499D01*
X167459999Y-93857499D01*
X167460000Y-93857498D01*
X167460000Y-92107500D01*
X167960000Y-92107500D01*
X167960000Y-93857499D01*
X168678591Y-93857499D01*
X168731190Y-93854705D01*
X168960987Y-93810262D01*
X169179975Y-93727620D01*
X169381841Y-93609160D01*
X169381848Y-93609155D01*
X169560786Y-93458288D01*
X169560788Y-93458286D01*
X169711655Y-93279348D01*
X169711660Y-93279341D01*
X169830120Y-93077475D01*
X169912762Y-92858487D01*
X169957205Y-92628691D01*
X169957205Y-92628690D01*
X169960000Y-92576091D01*
X169960000Y-91857500D01*
X169143686Y-91857500D01*
X169169493Y-91817344D01*
X169210000Y-91679389D01*
X169210000Y-91535611D01*
X169169493Y-91397656D01*
X169143686Y-91357500D01*
X169959999Y-91357500D01*
X169959999Y-90638909D01*
X169957205Y-90586309D01*
X169912762Y-90356512D01*
X169830120Y-90137524D01*
X169711660Y-89935658D01*
X169711655Y-89935651D01*
X169560788Y-89756713D01*
X169560786Y-89756711D01*
X169421530Y-89639301D01*
X169382965Y-89581039D01*
X169382021Y-89511176D01*
X169418998Y-89451893D01*
X169482155Y-89422012D01*
X169501459Y-89420500D01*
X179005500Y-89420500D01*
X179072539Y-89440185D01*
G37*
%TD.AperFunction*%
%TA.AperFunction,Conductor*%
G36*
X140455703Y-111140739D02*
G01*
X140462176Y-111146767D01*
X140704064Y-111388655D01*
X140899197Y-111583788D01*
X140909022Y-111596051D01*
X140909243Y-111595869D01*
X140914214Y-111601878D01*
X140923573Y-111610666D01*
X140964635Y-111649226D01*
X140985529Y-111670120D01*
X140991011Y-111674373D01*
X140995443Y-111678157D01*
X141029418Y-111710062D01*
X141046976Y-111719714D01*
X141063235Y-111730395D01*
X141079064Y-111742673D01*
X141121838Y-111761182D01*
X141127056Y-111763738D01*
X141167908Y-111786197D01*
X141187316Y-111791180D01*
X141205717Y-111797480D01*
X141224104Y-111805437D01*
X141267488Y-111812308D01*
X141270119Y-111812725D01*
X141275839Y-111813909D01*
X141320981Y-111825500D01*
X141341016Y-111825500D01*
X141360415Y-111827027D01*
X141380196Y-111830160D01*
X141421450Y-111826260D01*
X141426582Y-111825775D01*
X141432420Y-111825500D01*
X143175500Y-111825500D01*
X143242539Y-111845185D01*
X143288294Y-111897989D01*
X143299500Y-111949500D01*
X143299500Y-111979609D01*
X143279815Y-112046648D01*
X143227011Y-112092403D01*
X143162899Y-112102967D01*
X143080012Y-112094500D01*
X142479998Y-112094500D01*
X142479980Y-112094501D01*
X142377203Y-112105000D01*
X142377200Y-112105001D01*
X142210668Y-112160185D01*
X142210663Y-112160187D01*
X142061342Y-112252289D01*
X141937288Y-112376343D01*
X141937283Y-112376349D01*
X141935241Y-112379661D01*
X141933247Y-112381453D01*
X141932807Y-112382011D01*
X141932711Y-112381935D01*
X141883291Y-112426383D01*
X141814328Y-112437602D01*
X141750247Y-112409755D01*
X141724168Y-112379656D01*
X141722319Y-112376659D01*
X141722316Y-112376655D01*
X141598345Y-112252684D01*
X141449124Y-112160643D01*
X141449119Y-112160641D01*
X141282697Y-112105494D01*
X141282690Y-112105493D01*
X141179986Y-112095000D01*
X141130000Y-112095000D01*
X141130000Y-114544999D01*
X141179972Y-114544999D01*
X141179986Y-114544998D01*
X141282697Y-114534505D01*
X141449119Y-114479358D01*
X141449124Y-114479356D01*
X141598345Y-114387315D01*
X141722318Y-114263342D01*
X141724165Y-114260348D01*
X141725969Y-114258724D01*
X141726798Y-114257677D01*
X141726976Y-114257818D01*
X141776110Y-114213621D01*
X141845073Y-114202396D01*
X141909156Y-114230236D01*
X141935243Y-114260341D01*
X141937288Y-114263656D01*
X142061344Y-114387712D01*
X142210666Y-114479814D01*
X142377203Y-114534999D01*
X142479991Y-114545500D01*
X143080008Y-114545499D01*
X143080016Y-114545498D01*
X143080019Y-114545498D01*
X143136302Y-114539748D01*
X143182797Y-114534999D01*
X143349334Y-114479814D01*
X143498656Y-114387712D01*
X143622712Y-114263656D01*
X143705519Y-114129402D01*
X143757467Y-114082679D01*
X143811058Y-114070500D01*
X144756295Y-114070500D01*
X144774265Y-114071809D01*
X144798023Y-114075289D01*
X144850068Y-114070735D01*
X144855470Y-114070500D01*
X144863704Y-114070500D01*
X144863709Y-114070500D01*
X144875327Y-114069141D01*
X144896276Y-114066693D01*
X144909028Y-114065577D01*
X144972797Y-114059999D01*
X144972805Y-114059996D01*
X144979866Y-114058539D01*
X144979878Y-114058598D01*
X144987243Y-114056965D01*
X144987229Y-114056906D01*
X144994246Y-114055241D01*
X144994255Y-114055241D01*
X145066423Y-114028974D01*
X145139334Y-114004814D01*
X145139343Y-114004807D01*
X145145882Y-114001760D01*
X145145908Y-114001816D01*
X145152690Y-113998532D01*
X145152663Y-113998478D01*
X145159106Y-113995240D01*
X145159117Y-113995237D01*
X145223283Y-113953034D01*
X145288656Y-113912712D01*
X145288662Y-113912705D01*
X145294325Y-113908229D01*
X145294362Y-113908277D01*
X145300199Y-113903522D01*
X145300160Y-113903475D01*
X145305685Y-113898836D01*
X145305696Y-113898830D01*
X145358389Y-113842978D01*
X145535647Y-113665718D01*
X145549260Y-113653954D01*
X145568530Y-113639610D01*
X145568532Y-113639607D01*
X145568534Y-113639606D01*
X145597228Y-113605408D01*
X145602111Y-113599587D01*
X145605767Y-113595599D01*
X145608673Y-113592694D01*
X145611590Y-113589777D01*
X145621758Y-113576916D01*
X145631928Y-113564054D01*
X145645809Y-113547511D01*
X145681302Y-113505214D01*
X145681304Y-113505209D01*
X145685272Y-113499179D01*
X145685323Y-113499212D01*
X145689372Y-113492856D01*
X145689320Y-113492824D01*
X145693112Y-113486675D01*
X145725575Y-113417058D01*
X145751293Y-113365849D01*
X145760040Y-113348433D01*
X145760042Y-113348421D01*
X145762509Y-113341646D01*
X145762567Y-113341667D01*
X145765043Y-113334546D01*
X145764986Y-113334527D01*
X145767255Y-113327678D01*
X145767255Y-113327676D01*
X145767257Y-113327673D01*
X145773088Y-113299426D01*
X145805923Y-113237752D01*
X145866888Y-113203619D01*
X145894528Y-113200499D01*
X146347871Y-113200499D01*
X146347872Y-113200499D01*
X146407483Y-113194091D01*
X146482169Y-113166234D01*
X146551857Y-113161251D01*
X146613181Y-113194735D01*
X146646666Y-113256058D01*
X146649500Y-113282417D01*
X146649500Y-114647870D01*
X146649501Y-114647876D01*
X146655908Y-114707483D01*
X146706202Y-114842328D01*
X146706206Y-114842335D01*
X146792452Y-114957544D01*
X146792453Y-114957544D01*
X146792454Y-114957546D01*
X146814363Y-114973947D01*
X146901577Y-115039236D01*
X146943447Y-115095170D01*
X146948431Y-115164861D01*
X146914945Y-115226184D01*
X146853622Y-115259669D01*
X146827121Y-115262502D01*
X139964622Y-115254540D01*
X139897606Y-115234778D01*
X139851912Y-115181921D01*
X139842049Y-115112751D01*
X139871147Y-115049229D01*
X139877071Y-115042873D01*
X139999513Y-114920431D01*
X140012079Y-114910365D01*
X140011925Y-114910178D01*
X140017937Y-114905204D01*
X140017937Y-114905203D01*
X140017940Y-114905202D01*
X140067190Y-114852755D01*
X140088911Y-114831035D01*
X140093401Y-114825245D01*
X140097183Y-114820815D01*
X140130448Y-114785393D01*
X140140674Y-114766790D01*
X140151353Y-114750533D01*
X140164362Y-114733764D01*
X140183656Y-114689175D01*
X140186212Y-114683956D01*
X140209627Y-114641368D01*
X140214905Y-114620806D01*
X140221207Y-114602399D01*
X140229635Y-114582927D01*
X140229635Y-114582926D01*
X140232735Y-114575764D01*
X140235137Y-114576803D01*
X140265899Y-114528618D01*
X140329367Y-114499401D01*
X140386389Y-114504379D01*
X140477302Y-114534505D01*
X140477309Y-114534506D01*
X140580019Y-114544999D01*
X140629999Y-114544998D01*
X140630000Y-114544998D01*
X140630000Y-112095000D01*
X140629999Y-112094999D01*
X140580029Y-112095000D01*
X140580011Y-112095001D01*
X140477302Y-112105494D01*
X140413504Y-112126635D01*
X140343676Y-112129037D01*
X140283634Y-112093305D01*
X140252441Y-112030785D01*
X140250500Y-112008929D01*
X140250500Y-111234452D01*
X140270185Y-111167413D01*
X140322989Y-111121658D01*
X140392147Y-111111714D01*
X140455703Y-111140739D01*
G37*
%TD.AperFunction*%
%TA.AperFunction,Conductor*%
G36*
X172992540Y-110020185D02*
G01*
X173038295Y-110072989D01*
X173049501Y-110124500D01*
X173049501Y-110297876D01*
X173055908Y-110357483D01*
X173106202Y-110492328D01*
X173106206Y-110492335D01*
X173192452Y-110607544D01*
X173192455Y-110607547D01*
X173307664Y-110693793D01*
X173307671Y-110693797D01*
X173442517Y-110744091D01*
X173442516Y-110744091D01*
X173449444Y-110744835D01*
X173502127Y-110750500D01*
X174572833Y-110750499D01*
X174639872Y-110770183D01*
X174685627Y-110822987D01*
X174695571Y-110892146D01*
X174695525Y-110892460D01*
X174694710Y-110898022D01*
X174694710Y-110898023D01*
X174699264Y-110950064D01*
X174699500Y-110955470D01*
X174699500Y-110963709D01*
X174703306Y-110996274D01*
X174710000Y-111072791D01*
X174711461Y-111079867D01*
X174711403Y-111079878D01*
X174713034Y-111087237D01*
X174713092Y-111087224D01*
X174714757Y-111094250D01*
X174741025Y-111166424D01*
X174765185Y-111239331D01*
X174768236Y-111245874D01*
X174768182Y-111245898D01*
X174771470Y-111252688D01*
X174771521Y-111252663D01*
X174774761Y-111259113D01*
X174774762Y-111259114D01*
X174774763Y-111259117D01*
X174794636Y-111289333D01*
X174816965Y-111323283D01*
X174857287Y-111388655D01*
X174861766Y-111394319D01*
X174861719Y-111394356D01*
X174866478Y-111400198D01*
X174866524Y-111400160D01*
X174871169Y-111405695D01*
X174927021Y-111458390D01*
X174995348Y-111526716D01*
X175144274Y-111675641D01*
X175156050Y-111689268D01*
X175170390Y-111708530D01*
X175210415Y-111742116D01*
X175214403Y-111745771D01*
X175220218Y-111751586D01*
X175220227Y-111751594D01*
X175245947Y-111771931D01*
X175304788Y-111821304D01*
X175310818Y-111825270D01*
X175310785Y-111825319D01*
X175317143Y-111829369D01*
X175317175Y-111829319D01*
X175323320Y-111833109D01*
X175323323Y-111833111D01*
X175392936Y-111865572D01*
X175461567Y-111900040D01*
X175461572Y-111900041D01*
X175468361Y-111902513D01*
X175468340Y-111902570D01*
X175475455Y-111905043D01*
X175475475Y-111904986D01*
X175482330Y-111907258D01*
X175552492Y-111921744D01*
X175557558Y-111922790D01*
X175632279Y-111940500D01*
X175632289Y-111940500D01*
X175639452Y-111941338D01*
X175639444Y-111941397D01*
X175646945Y-111942164D01*
X175646951Y-111942105D01*
X175654140Y-111942734D01*
X175654144Y-111942733D01*
X175654145Y-111942734D01*
X175730918Y-111940500D01*
X175896390Y-111940500D01*
X175963429Y-111960185D01*
X176009184Y-112012989D01*
X176019128Y-112082147D01*
X175990103Y-112145703D01*
X175977081Y-112157826D01*
X175972452Y-112162455D01*
X175886206Y-112277664D01*
X175886202Y-112277671D01*
X175836997Y-112409598D01*
X175795126Y-112465532D01*
X175729661Y-112489949D01*
X175661388Y-112475097D01*
X175633134Y-112453946D01*
X175511082Y-112331894D01*
X175317578Y-112196399D01*
X175103492Y-112096570D01*
X175103486Y-112096567D01*
X174890000Y-112039364D01*
X174890000Y-112934498D01*
X174782315Y-112885320D01*
X174675763Y-112870000D01*
X174604237Y-112870000D01*
X174497685Y-112885320D01*
X174390000Y-112934498D01*
X174390000Y-112039364D01*
X174389999Y-112039364D01*
X174176513Y-112096567D01*
X174176507Y-112096570D01*
X173962422Y-112196399D01*
X173962420Y-112196400D01*
X173768926Y-112331886D01*
X173768920Y-112331891D01*
X173601891Y-112498920D01*
X173601890Y-112498922D01*
X173471880Y-112684595D01*
X173417303Y-112728219D01*
X173347804Y-112735412D01*
X173285450Y-112703890D01*
X173268730Y-112684594D01*
X173138494Y-112498597D01*
X172971402Y-112331506D01*
X172971395Y-112331501D01*
X172777834Y-112195967D01*
X172777830Y-112195965D01*
X172706148Y-112162539D01*
X172563663Y-112096097D01*
X172563659Y-112096096D01*
X172563655Y-112096094D01*
X172335413Y-112034938D01*
X172335403Y-112034936D01*
X172100001Y-112014341D01*
X172099999Y-112014341D01*
X171864596Y-112034936D01*
X171864586Y-112034938D01*
X171636344Y-112096094D01*
X171636335Y-112096098D01*
X171422171Y-112195964D01*
X171422169Y-112195965D01*
X171228597Y-112331505D01*
X171061505Y-112498597D01*
X170931575Y-112684158D01*
X170876998Y-112727783D01*
X170807500Y-112734977D01*
X170745145Y-112703454D01*
X170728425Y-112684158D01*
X170598494Y-112498597D01*
X170431402Y-112331506D01*
X170431395Y-112331501D01*
X170237834Y-112195967D01*
X170237830Y-112195965D01*
X170166148Y-112162539D01*
X170023663Y-112096097D01*
X170023659Y-112096096D01*
X170023655Y-112096094D01*
X169795413Y-112034938D01*
X169795403Y-112034936D01*
X169560001Y-112014341D01*
X169559999Y-112014341D01*
X169324596Y-112034936D01*
X169324586Y-112034938D01*
X169096344Y-112096094D01*
X169096335Y-112096098D01*
X168882171Y-112195964D01*
X168882169Y-112195965D01*
X168688597Y-112331505D01*
X168521505Y-112498597D01*
X168391575Y-112684158D01*
X168336998Y-112727783D01*
X168267500Y-112734977D01*
X168205145Y-112703454D01*
X168188425Y-112684158D01*
X168058494Y-112498597D01*
X167891402Y-112331506D01*
X167891395Y-112331501D01*
X167697834Y-112195967D01*
X167697830Y-112195965D01*
X167626148Y-112162539D01*
X167483663Y-112096097D01*
X167483659Y-112096096D01*
X167483655Y-112096094D01*
X167374142Y-112066751D01*
X167314481Y-112030386D01*
X167283952Y-111967539D01*
X167292247Y-111898164D01*
X167322302Y-111855700D01*
X168325547Y-110933220D01*
X168388219Y-110902335D01*
X168409477Y-110900499D01*
X168650002Y-110900499D01*
X168650008Y-110900499D01*
X168752797Y-110889999D01*
X168919334Y-110834814D01*
X169068656Y-110742712D01*
X169162319Y-110649048D01*
X169223642Y-110615564D01*
X169293334Y-110620548D01*
X169337681Y-110649048D01*
X169431344Y-110742712D01*
X169580666Y-110834814D01*
X169747203Y-110889999D01*
X169849991Y-110900500D01*
X170475008Y-110900499D01*
X170475016Y-110900498D01*
X170475019Y-110900498D01*
X170556779Y-110892146D01*
X170577797Y-110889999D01*
X170744334Y-110834814D01*
X170893656Y-110742712D01*
X171017712Y-110618656D01*
X171085099Y-110509402D01*
X171137047Y-110462679D01*
X171190638Y-110450500D01*
X171986295Y-110450500D01*
X172004265Y-110451809D01*
X172028023Y-110455289D01*
X172080068Y-110450735D01*
X172085470Y-110450500D01*
X172093704Y-110450500D01*
X172093709Y-110450500D01*
X172105327Y-110449141D01*
X172126276Y-110446693D01*
X172139028Y-110445577D01*
X172202797Y-110439999D01*
X172202805Y-110439996D01*
X172209866Y-110438539D01*
X172209878Y-110438598D01*
X172217243Y-110436965D01*
X172217229Y-110436906D01*
X172224246Y-110435241D01*
X172224255Y-110435241D01*
X172296423Y-110408974D01*
X172369334Y-110384814D01*
X172369343Y-110384807D01*
X172375882Y-110381760D01*
X172375908Y-110381816D01*
X172382690Y-110378532D01*
X172382663Y-110378478D01*
X172389106Y-110375240D01*
X172389117Y-110375237D01*
X172453283Y-110333034D01*
X172518656Y-110292712D01*
X172518662Y-110292705D01*
X172524325Y-110288229D01*
X172524362Y-110288277D01*
X172530204Y-110283518D01*
X172530164Y-110283471D01*
X172535686Y-110278836D01*
X172535696Y-110278830D01*
X172557400Y-110255824D01*
X172588388Y-110222980D01*
X172774548Y-110036819D01*
X172835871Y-110003334D01*
X172862229Y-110000500D01*
X172925501Y-110000500D01*
X172992540Y-110020185D01*
G37*
%TD.AperFunction*%
%TA.AperFunction,Conductor*%
G36*
X167126401Y-108020185D02*
G01*
X167164899Y-108059401D01*
X167232288Y-108168656D01*
X167356344Y-108292712D01*
X167505666Y-108384814D01*
X167606105Y-108418096D01*
X167663550Y-108457869D01*
X167690373Y-108522385D01*
X167678058Y-108591160D01*
X167632199Y-108641340D01*
X167606344Y-108657287D01*
X167482289Y-108781342D01*
X167390187Y-108930663D01*
X167390185Y-108930668D01*
X167386319Y-108942335D01*
X167335001Y-109097203D01*
X167335001Y-109097204D01*
X167335000Y-109097204D01*
X167324500Y-109199983D01*
X167324500Y-110099784D01*
X167304815Y-110166823D01*
X167284430Y-110191062D01*
X166673408Y-110752894D01*
X166610736Y-110783780D01*
X166541314Y-110775880D01*
X166532573Y-110770000D01*
X165384000Y-110770000D01*
X165316961Y-110750315D01*
X165271206Y-110697511D01*
X165260000Y-110646000D01*
X165260000Y-110394000D01*
X165279685Y-110326961D01*
X165332489Y-110281206D01*
X165384000Y-110270000D01*
X166522499Y-110270000D01*
X166522499Y-110020028D01*
X166522498Y-110020013D01*
X166512005Y-109917302D01*
X166456858Y-109750880D01*
X166456853Y-109750869D01*
X166373401Y-109615573D01*
X166354960Y-109548181D01*
X166373398Y-109485382D01*
X166457314Y-109349334D01*
X166512499Y-109182797D01*
X166523000Y-109080009D01*
X166522999Y-108124499D01*
X166542683Y-108057461D01*
X166595487Y-108011706D01*
X166646999Y-108000500D01*
X167059362Y-108000500D01*
X167126401Y-108020185D01*
G37*
%TD.AperFunction*%
%TA.AperFunction,Conductor*%
G36*
X144473039Y-89440185D02*
G01*
X144518794Y-89492989D01*
X144530000Y-89544500D01*
X144530000Y-89580000D01*
X144530000Y-96900000D01*
X160770000Y-96900000D01*
X160770000Y-89544500D01*
X160789685Y-89477461D01*
X160842489Y-89431706D01*
X160894000Y-89420500D01*
X165918541Y-89420500D01*
X165985580Y-89440185D01*
X166031335Y-89492989D01*
X166041279Y-89562147D01*
X166012254Y-89625703D01*
X165998470Y-89639301D01*
X165859213Y-89756711D01*
X165859211Y-89756713D01*
X165708344Y-89935651D01*
X165708339Y-89935658D01*
X165589879Y-90137524D01*
X165507237Y-90356512D01*
X165462794Y-90586308D01*
X165462794Y-90586309D01*
X165460000Y-90638909D01*
X165460000Y-91357500D01*
X166276314Y-91357500D01*
X166250507Y-91397656D01*
X166210000Y-91535611D01*
X166210000Y-91679389D01*
X166250507Y-91817344D01*
X166276314Y-91857500D01*
X165460001Y-91857500D01*
X165460001Y-92576091D01*
X165462794Y-92628690D01*
X165507237Y-92858487D01*
X165589879Y-93077475D01*
X165708339Y-93279341D01*
X165708344Y-93279348D01*
X165859211Y-93458286D01*
X165859213Y-93458288D01*
X166038151Y-93609155D01*
X166038158Y-93609160D01*
X166240024Y-93727620D01*
X166459012Y-93810262D01*
X166464150Y-93811256D01*
X166526232Y-93843312D01*
X166561127Y-93903844D01*
X166557758Y-93973632D01*
X166517193Y-94030520D01*
X166452311Y-94056446D01*
X166440604Y-94057000D01*
X162912129Y-94057000D01*
X162912123Y-94057001D01*
X162852516Y-94063408D01*
X162717671Y-94113702D01*
X162717664Y-94113706D01*
X162602455Y-94199952D01*
X162602452Y-94199955D01*
X162516206Y-94315164D01*
X162516202Y-94315171D01*
X162465908Y-94450017D01*
X162459501Y-94509616D01*
X162459501Y-94509623D01*
X162459500Y-94509635D01*
X162459500Y-98105370D01*
X162459501Y-98105376D01*
X162465908Y-98164983D01*
X162516202Y-98299828D01*
X162516206Y-98299835D01*
X162602452Y-98415044D01*
X162602455Y-98415047D01*
X162717664Y-98501293D01*
X162717671Y-98501297D01*
X162852517Y-98551591D01*
X162852516Y-98551591D01*
X162859444Y-98552335D01*
X162912127Y-98558000D01*
X163922561Y-98557999D01*
X163989600Y-98577683D01*
X164030573Y-98623231D01*
X164030796Y-98623085D01*
X164031758Y-98624547D01*
X164033364Y-98626333D01*
X164034760Y-98629113D01*
X164076965Y-98693283D01*
X164117287Y-98758655D01*
X164121766Y-98764319D01*
X164121719Y-98764356D01*
X164126482Y-98770202D01*
X164126528Y-98770164D01*
X164131173Y-98775700D01*
X164187017Y-98828385D01*
X164724270Y-99365638D01*
X164736051Y-99379270D01*
X164750388Y-99398528D01*
X164790409Y-99432111D01*
X164794397Y-99435766D01*
X164800216Y-99441585D01*
X164800220Y-99441588D01*
X164800223Y-99441591D01*
X164825959Y-99461940D01*
X164884786Y-99511302D01*
X164884787Y-99511302D01*
X164884789Y-99511304D01*
X164890818Y-99515270D01*
X164890785Y-99515319D01*
X164897147Y-99519372D01*
X164897179Y-99519321D01*
X164903319Y-99523108D01*
X164903323Y-99523111D01*
X164938132Y-99539343D01*
X164972941Y-99555575D01*
X165017922Y-99578165D01*
X165041567Y-99590040D01*
X165041569Y-99590040D01*
X165048357Y-99592511D01*
X165048336Y-99592567D01*
X165055457Y-99595043D01*
X165055476Y-99594986D01*
X165062322Y-99597254D01*
X165062327Y-99597257D01*
X165062332Y-99597258D01*
X165062335Y-99597259D01*
X165137564Y-99612792D01*
X165137565Y-99612792D01*
X165212279Y-99630500D01*
X165212282Y-99630500D01*
X165212286Y-99630501D01*
X165219453Y-99631339D01*
X165219446Y-99631398D01*
X165226944Y-99632164D01*
X165226950Y-99632105D01*
X165234139Y-99632734D01*
X165234143Y-99632733D01*
X165234144Y-99632734D01*
X165310917Y-99630500D01*
X166087770Y-99630500D01*
X166154809Y-99650185D01*
X166175451Y-99666819D01*
X166680681Y-100172048D01*
X166714166Y-100233371D01*
X166717000Y-100259729D01*
X166717000Y-100886358D01*
X166716895Y-100889963D01*
X166713169Y-100953934D01*
X166713169Y-100953935D01*
X166715116Y-100964977D01*
X166717000Y-100986509D01*
X166717000Y-101249362D01*
X166697315Y-101316401D01*
X166658098Y-101354899D01*
X166589788Y-101397033D01*
X166548842Y-101422289D01*
X166424789Y-101546342D01*
X166332687Y-101695663D01*
X166332685Y-101695668D01*
X166321088Y-101730666D01*
X166277501Y-101862203D01*
X166277501Y-101862204D01*
X166277500Y-101862204D01*
X166267000Y-101964983D01*
X166267000Y-102915001D01*
X166267001Y-102915019D01*
X166277500Y-103017796D01*
X166277501Y-103017799D01*
X166332685Y-103184331D01*
X166332687Y-103184336D01*
X166358608Y-103226360D01*
X166424788Y-103333656D01*
X166548844Y-103457712D01*
X166698166Y-103549814D01*
X166864703Y-103604999D01*
X166967491Y-103615500D01*
X167023724Y-103615499D01*
X167090761Y-103635182D01*
X167136517Y-103687986D01*
X167146461Y-103757144D01*
X167141429Y-103778503D01*
X167085494Y-103947302D01*
X167085493Y-103947309D01*
X167075000Y-104050013D01*
X167075000Y-104300000D01*
X168376000Y-104300000D01*
X168443039Y-104319685D01*
X168488794Y-104372489D01*
X168500000Y-104424000D01*
X168500000Y-105749999D01*
X168724972Y-105749999D01*
X168724986Y-105749998D01*
X168827697Y-105739505D01*
X168994119Y-105684358D01*
X168994124Y-105684356D01*
X169143345Y-105592315D01*
X169267315Y-105468345D01*
X169334820Y-105358903D01*
X169386768Y-105312179D01*
X169440359Y-105300000D01*
X170400000Y-105300000D01*
X170400000Y-103754000D01*
X170419685Y-103686961D01*
X170472489Y-103641206D01*
X170524000Y-103630000D01*
X170776000Y-103630000D01*
X170843039Y-103649685D01*
X170888794Y-103702489D01*
X170900000Y-103754000D01*
X170900000Y-105300000D01*
X171874999Y-105300000D01*
X171874999Y-105250028D01*
X171874998Y-105250013D01*
X171864505Y-105147302D01*
X171809358Y-104980880D01*
X171809356Y-104980875D01*
X171717315Y-104831654D01*
X171688342Y-104802681D01*
X171654857Y-104741358D01*
X171659841Y-104671666D01*
X171688342Y-104627319D01*
X171717315Y-104598345D01*
X171809356Y-104449124D01*
X171809358Y-104449119D01*
X171839376Y-104358532D01*
X171879148Y-104301087D01*
X171943664Y-104274264D01*
X172012440Y-104286579D01*
X172034942Y-104302783D01*
X172035355Y-104302232D01*
X172157664Y-104393793D01*
X172157671Y-104393797D01*
X172292517Y-104444091D01*
X172292516Y-104444091D01*
X172299444Y-104444835D01*
X172352127Y-104450500D01*
X173947872Y-104450499D01*
X174007483Y-104444091D01*
X174142331Y-104393796D01*
X174225689Y-104331393D01*
X174291153Y-104306977D01*
X174359426Y-104321828D01*
X174374311Y-104331394D01*
X174457667Y-104393795D01*
X174457668Y-104393795D01*
X174457669Y-104393796D01*
X174468830Y-104397958D01*
X174524764Y-104439826D01*
X174549184Y-104505289D01*
X174549500Y-104514141D01*
X174549500Y-107625500D01*
X174529815Y-107692539D01*
X174477011Y-107738294D01*
X174425500Y-107749500D01*
X173502129Y-107749500D01*
X173502123Y-107749501D01*
X173442516Y-107755908D01*
X173307671Y-107806202D01*
X173307664Y-107806206D01*
X173192455Y-107892452D01*
X173192452Y-107892455D01*
X173106206Y-108007664D01*
X173106202Y-108007671D01*
X173055908Y-108142517D01*
X173049930Y-108198123D01*
X173049501Y-108202123D01*
X173049500Y-108202135D01*
X173049500Y-108375500D01*
X173029815Y-108442539D01*
X172977011Y-108488294D01*
X172925500Y-108499500D01*
X172563705Y-108499500D01*
X172545735Y-108498191D01*
X172521972Y-108494710D01*
X172476890Y-108498655D01*
X172469933Y-108499264D01*
X172464532Y-108499500D01*
X172456287Y-108499500D01*
X172430222Y-108502546D01*
X172423705Y-108503308D01*
X172418403Y-108503771D01*
X172347201Y-108510001D01*
X172340134Y-108511461D01*
X172340122Y-108511404D01*
X172332753Y-108513038D01*
X172332767Y-108513095D01*
X172325739Y-108514760D01*
X172286432Y-108529067D01*
X172253563Y-108541030D01*
X172180666Y-108565186D01*
X172180664Y-108565186D01*
X172180661Y-108565188D01*
X172174122Y-108568237D01*
X172174097Y-108568185D01*
X172167308Y-108571471D01*
X172167334Y-108571522D01*
X172160884Y-108574761D01*
X172096716Y-108616964D01*
X172031347Y-108657285D01*
X172025677Y-108661769D01*
X172025641Y-108661723D01*
X172019798Y-108666484D01*
X172019835Y-108666528D01*
X172014310Y-108671164D01*
X172014304Y-108671169D01*
X172014304Y-108671170D01*
X171961614Y-108727017D01*
X171862816Y-108825816D01*
X171775451Y-108913181D01*
X171714128Y-108946666D01*
X171687770Y-108949500D01*
X171350631Y-108949500D01*
X171283592Y-108929815D01*
X171237837Y-108877011D01*
X171227893Y-108807853D01*
X171255643Y-108745792D01*
X171281302Y-108715214D01*
X171281302Y-108715212D01*
X171281305Y-108715210D01*
X171285272Y-108709179D01*
X171285323Y-108709212D01*
X171289372Y-108702856D01*
X171289320Y-108702824D01*
X171293112Y-108696675D01*
X171325575Y-108627058D01*
X171343604Y-108591160D01*
X171360040Y-108558433D01*
X171360042Y-108558421D01*
X171362509Y-108551646D01*
X171362567Y-108551667D01*
X171365043Y-108544546D01*
X171364986Y-108544527D01*
X171367256Y-108537677D01*
X171370413Y-108522385D01*
X171381375Y-108469288D01*
X171414208Y-108407616D01*
X171439068Y-108390033D01*
X171438187Y-108388605D01*
X171444332Y-108384814D01*
X171444334Y-108384814D01*
X171593656Y-108292712D01*
X171717712Y-108168656D01*
X171809814Y-108019334D01*
X171864999Y-107852797D01*
X171875500Y-107750009D01*
X171875499Y-107149992D01*
X171874056Y-107135869D01*
X171864999Y-107047203D01*
X171864998Y-107047200D01*
X171846556Y-106991545D01*
X171809814Y-106880666D01*
X171717712Y-106731344D01*
X171593656Y-106607288D01*
X171590342Y-106605243D01*
X171588546Y-106603248D01*
X171587989Y-106602807D01*
X171588064Y-106602711D01*
X171543618Y-106553297D01*
X171532397Y-106484334D01*
X171560240Y-106420252D01*
X171590348Y-106394165D01*
X171593342Y-106392318D01*
X171717315Y-106268345D01*
X171809356Y-106119124D01*
X171809358Y-106119119D01*
X171864505Y-105952697D01*
X171864506Y-105952690D01*
X171874999Y-105849986D01*
X171875000Y-105849973D01*
X171875000Y-105800000D01*
X169425001Y-105800000D01*
X169425001Y-105849986D01*
X169435494Y-105952697D01*
X169490641Y-106119119D01*
X169490643Y-106119124D01*
X169582684Y-106268345D01*
X169706655Y-106392316D01*
X169706659Y-106392319D01*
X169709656Y-106394168D01*
X169711279Y-106395972D01*
X169712323Y-106396798D01*
X169712181Y-106396976D01*
X169756381Y-106446116D01*
X169767602Y-106515079D01*
X169739759Y-106579161D01*
X169709661Y-106605241D01*
X169706349Y-106607283D01*
X169706343Y-106607288D01*
X169650451Y-106663181D01*
X169589128Y-106696666D01*
X169562770Y-106699500D01*
X169521870Y-106699500D01*
X169454831Y-106679815D01*
X169409076Y-106627011D01*
X169404164Y-106614505D01*
X169392452Y-106579161D01*
X169359814Y-106480666D01*
X169267712Y-106331344D01*
X169143656Y-106207288D01*
X169018348Y-106129998D01*
X168994336Y-106115187D01*
X168994331Y-106115185D01*
X168992862Y-106114698D01*
X168827797Y-106060001D01*
X168827795Y-106060000D01*
X168725010Y-106049500D01*
X167774998Y-106049500D01*
X167774980Y-106049501D01*
X167672203Y-106060000D01*
X167672200Y-106060001D01*
X167505668Y-106115185D01*
X167505663Y-106115187D01*
X167356342Y-106207289D01*
X167232289Y-106331342D01*
X167232287Y-106331344D01*
X167232288Y-106331344D01*
X167170249Y-106431927D01*
X167164901Y-106440597D01*
X167112953Y-106487321D01*
X167059362Y-106499500D01*
X166646999Y-106499500D01*
X166579960Y-106479815D01*
X166534205Y-106427011D01*
X166522999Y-106375500D01*
X166522999Y-106129998D01*
X166522998Y-106129981D01*
X166512499Y-106027203D01*
X166512498Y-106027200D01*
X166487810Y-105952697D01*
X166457314Y-105860666D01*
X166380509Y-105736145D01*
X166362070Y-105668754D01*
X166382024Y-105605176D01*
X166381420Y-105604803D01*
X166382889Y-105602420D01*
X166382993Y-105602091D01*
X166383644Y-105601196D01*
X166385208Y-105598659D01*
X166385212Y-105598656D01*
X166477314Y-105449334D01*
X166532499Y-105282797D01*
X166543000Y-105180009D01*
X166543000Y-104800000D01*
X167075001Y-104800000D01*
X167075001Y-105049986D01*
X167085494Y-105152697D01*
X167140641Y-105319119D01*
X167140643Y-105319124D01*
X167232684Y-105468345D01*
X167356654Y-105592315D01*
X167505875Y-105684356D01*
X167505880Y-105684358D01*
X167672302Y-105739505D01*
X167672309Y-105739506D01*
X167775019Y-105749999D01*
X167999999Y-105749999D01*
X168000000Y-105749998D01*
X168000000Y-104800000D01*
X167075001Y-104800000D01*
X166543000Y-104800000D01*
X166542999Y-104179992D01*
X166540946Y-104159899D01*
X166532499Y-104077203D01*
X166532498Y-104077200D01*
X166512966Y-104018256D01*
X166477314Y-103910666D01*
X166385212Y-103761344D01*
X166261156Y-103637288D01*
X166168388Y-103580069D01*
X166111836Y-103545187D01*
X166111831Y-103545185D01*
X166110362Y-103544698D01*
X165945297Y-103490001D01*
X165945294Y-103490000D01*
X165923725Y-103487797D01*
X165859033Y-103461400D01*
X165818882Y-103404219D01*
X165816019Y-103334408D01*
X165830789Y-103299342D01*
X165901856Y-103184124D01*
X165901858Y-103184119D01*
X165957005Y-103017697D01*
X165957006Y-103017690D01*
X165967499Y-102914986D01*
X165967500Y-102914973D01*
X165967500Y-102690000D01*
X163635512Y-102690000D01*
X163568473Y-102670315D01*
X163559510Y-102663978D01*
X163550933Y-102657325D01*
X163508168Y-102638818D01*
X163502922Y-102636248D01*
X163462093Y-102613803D01*
X163462092Y-102613802D01*
X163442693Y-102608822D01*
X163424281Y-102602518D01*
X163405898Y-102594562D01*
X163405892Y-102594560D01*
X163359874Y-102587272D01*
X163354152Y-102586087D01*
X163309021Y-102574500D01*
X163309019Y-102574500D01*
X163288984Y-102574500D01*
X163269586Y-102572973D01*
X163262162Y-102571797D01*
X163249805Y-102569840D01*
X163249804Y-102569840D01*
X163203416Y-102574225D01*
X163197578Y-102574500D01*
X162124500Y-102574500D01*
X162057461Y-102554815D01*
X162011706Y-102502011D01*
X162000500Y-102450500D01*
X162000500Y-102190000D01*
X163567500Y-102190000D01*
X164517500Y-102190000D01*
X164517500Y-101265000D01*
X165017500Y-101265000D01*
X165017500Y-102190000D01*
X165967499Y-102190000D01*
X165967499Y-101965028D01*
X165967498Y-101965013D01*
X165957005Y-101862302D01*
X165901858Y-101695880D01*
X165901856Y-101695875D01*
X165809815Y-101546654D01*
X165685845Y-101422684D01*
X165536624Y-101330643D01*
X165536619Y-101330641D01*
X165370197Y-101275494D01*
X165370190Y-101275493D01*
X165267486Y-101265000D01*
X165017500Y-101265000D01*
X164517500Y-101265000D01*
X164267529Y-101265000D01*
X164267512Y-101265001D01*
X164164802Y-101275494D01*
X163998380Y-101330641D01*
X163998375Y-101330643D01*
X163849154Y-101422684D01*
X163725184Y-101546654D01*
X163633143Y-101695875D01*
X163633141Y-101695880D01*
X163577994Y-101862302D01*
X163577993Y-101862309D01*
X163567500Y-101965013D01*
X163567500Y-102190000D01*
X162000500Y-102190000D01*
X162000499Y-101652129D01*
X162000498Y-101652123D01*
X162000497Y-101652116D01*
X161994091Y-101592517D01*
X161985289Y-101568918D01*
X161943797Y-101457671D01*
X161943793Y-101457664D01*
X161868185Y-101356666D01*
X161857546Y-101342454D01*
X161799854Y-101299265D01*
X161757984Y-101243333D01*
X161753000Y-101173641D01*
X161786485Y-101112318D01*
X161799854Y-101100734D01*
X161857546Y-101057546D01*
X161943796Y-100942331D01*
X161994091Y-100807483D01*
X162000500Y-100747873D01*
X162000499Y-99652128D01*
X161994356Y-99594986D01*
X161994091Y-99592516D01*
X161943797Y-99457671D01*
X161943793Y-99457664D01*
X161879684Y-99372027D01*
X161857546Y-99342454D01*
X161799854Y-99299265D01*
X161757984Y-99243333D01*
X161753000Y-99173641D01*
X161786485Y-99112318D01*
X161799850Y-99100736D01*
X161857546Y-99057546D01*
X161943796Y-98942331D01*
X161994091Y-98807483D01*
X162000500Y-98747873D01*
X162000499Y-97652128D01*
X161994091Y-97592517D01*
X161989646Y-97580600D01*
X161943797Y-97457671D01*
X161943793Y-97457664D01*
X161857547Y-97342455D01*
X161857544Y-97342452D01*
X161742335Y-97256206D01*
X161742328Y-97256202D01*
X161607482Y-97205908D01*
X161607483Y-97205908D01*
X161547883Y-97199501D01*
X161547881Y-97199500D01*
X161547873Y-97199500D01*
X161547864Y-97199500D01*
X158952129Y-97199500D01*
X158952123Y-97199501D01*
X158892516Y-97205908D01*
X158757671Y-97256202D01*
X158757664Y-97256206D01*
X158642455Y-97342452D01*
X158642452Y-97342455D01*
X158556206Y-97457664D01*
X158556202Y-97457671D01*
X158505908Y-97592517D01*
X158500931Y-97638818D01*
X158499501Y-97652123D01*
X158499500Y-97652135D01*
X158499500Y-97714546D01*
X158479815Y-97781585D01*
X158463181Y-97802227D01*
X158102228Y-98163181D01*
X158040905Y-98196666D01*
X158014547Y-98199500D01*
X157955354Y-98199500D01*
X157936526Y-98203502D01*
X157770197Y-98238855D01*
X157770192Y-98238857D01*
X157597270Y-98315848D01*
X157597265Y-98315851D01*
X157444129Y-98427111D01*
X157317466Y-98567785D01*
X157222821Y-98731715D01*
X157222818Y-98731722D01*
X157164327Y-98911740D01*
X157164326Y-98911744D01*
X157144540Y-99100000D01*
X157164326Y-99288256D01*
X157164327Y-99288259D01*
X157222818Y-99468277D01*
X157222821Y-99468284D01*
X157320716Y-99637844D01*
X157318150Y-99639325D01*
X157337250Y-99693098D01*
X157321327Y-99761129D01*
X157320680Y-99762135D01*
X157320716Y-99762156D01*
X157222821Y-99931715D01*
X157222818Y-99931722D01*
X157172362Y-100087011D01*
X157164326Y-100111744D01*
X157154171Y-100208367D01*
X157144623Y-100299215D01*
X157144540Y-100300000D01*
X157164326Y-100488256D01*
X157164327Y-100488259D01*
X157222818Y-100668277D01*
X157222821Y-100668284D01*
X157317467Y-100832216D01*
X157369463Y-100889963D01*
X157444129Y-100972888D01*
X157597265Y-101084148D01*
X157597270Y-101084151D01*
X157770192Y-101161142D01*
X157770197Y-101161144D01*
X157955354Y-101200500D01*
X157955355Y-101200500D01*
X158144644Y-101200500D01*
X158144646Y-101200500D01*
X158329803Y-101161144D01*
X158502730Y-101084151D01*
X158517684Y-101073285D01*
X158583486Y-101049805D01*
X158651541Y-101065627D01*
X158664884Y-101074337D01*
X158700146Y-101100735D01*
X158742016Y-101156669D01*
X158746999Y-101226361D01*
X158713512Y-101287683D01*
X158700145Y-101299266D01*
X158642452Y-101342455D01*
X158556206Y-101457664D01*
X158556202Y-101457671D01*
X158505908Y-101592517D01*
X158501584Y-101632742D01*
X158499501Y-101652123D01*
X158499500Y-101652135D01*
X158499501Y-102450500D01*
X158479817Y-102517539D01*
X158427013Y-102563294D01*
X158375501Y-102574500D01*
X152572743Y-102574500D01*
X152557122Y-102572775D01*
X152557095Y-102573061D01*
X152549333Y-102572326D01*
X152480172Y-102574500D01*
X152450649Y-102574500D01*
X152443778Y-102575367D01*
X152437959Y-102575825D01*
X152391374Y-102577289D01*
X152391368Y-102577290D01*
X152372126Y-102582880D01*
X152353087Y-102586823D01*
X152333217Y-102589334D01*
X152333203Y-102589337D01*
X152289883Y-102606488D01*
X152284358Y-102608380D01*
X152239613Y-102621380D01*
X152239610Y-102621381D01*
X152222366Y-102631579D01*
X152204905Y-102640133D01*
X152186274Y-102647510D01*
X152186262Y-102647517D01*
X152148570Y-102674902D01*
X152143687Y-102678109D01*
X152103580Y-102701829D01*
X152089414Y-102715995D01*
X152074624Y-102728627D01*
X152058414Y-102740404D01*
X152058411Y-102740407D01*
X152028714Y-102776304D01*
X152024782Y-102780626D01*
X151912229Y-102893180D01*
X151850906Y-102926666D01*
X151824547Y-102929500D01*
X151765354Y-102929500D01*
X151732897Y-102936398D01*
X151580197Y-102968855D01*
X151580192Y-102968857D01*
X151407270Y-103045848D01*
X151407265Y-103045851D01*
X151254129Y-103157111D01*
X151127466Y-103297785D01*
X151032821Y-103461715D01*
X151032818Y-103461722D01*
X150974501Y-103641206D01*
X150974326Y-103641744D01*
X150954540Y-103830000D01*
X150974326Y-104018256D01*
X150974327Y-104018259D01*
X151032818Y-104198277D01*
X151032821Y-104198284D01*
X151127467Y-104362216D01*
X151243693Y-104491298D01*
X151254129Y-104502888D01*
X151407265Y-104614148D01*
X151407270Y-104614151D01*
X151584253Y-104692950D01*
X151637490Y-104738200D01*
X151657811Y-104805049D01*
X151638766Y-104872273D01*
X151621498Y-104893910D01*
X149637181Y-106878228D01*
X149575858Y-106911713D01*
X149506166Y-106906729D01*
X149450233Y-106864857D01*
X149425816Y-106799393D01*
X149425500Y-106790547D01*
X149425500Y-101632742D01*
X149427224Y-101617122D01*
X149426939Y-101617096D01*
X149427671Y-101609340D01*
X149427673Y-101609333D01*
X149425500Y-101540185D01*
X149425500Y-101510650D01*
X149424631Y-101503772D01*
X149424172Y-101497943D01*
X149422709Y-101451372D01*
X149417122Y-101432144D01*
X149413174Y-101413084D01*
X149411757Y-101401862D01*
X149410664Y-101393208D01*
X149410663Y-101393206D01*
X149410663Y-101393204D01*
X149393512Y-101349887D01*
X149391619Y-101344358D01*
X149378618Y-101299609D01*
X149378616Y-101299606D01*
X149368423Y-101282371D01*
X149359861Y-101264894D01*
X149352487Y-101246270D01*
X149352486Y-101246268D01*
X149325079Y-101208545D01*
X149321888Y-101203686D01*
X149319708Y-101200000D01*
X149298170Y-101163580D01*
X149298168Y-101163578D01*
X149298165Y-101163574D01*
X149284006Y-101149415D01*
X149271368Y-101134619D01*
X149269677Y-101132291D01*
X149259594Y-101118413D01*
X149252226Y-101112318D01*
X149223688Y-101088709D01*
X149219376Y-101084786D01*
X148433805Y-100299215D01*
X148400320Y-100237892D01*
X148405304Y-100168200D01*
X148447176Y-100112267D01*
X148471044Y-100098258D01*
X148502730Y-100084151D01*
X148655871Y-99972888D01*
X148782533Y-99832216D01*
X148877179Y-99668284D01*
X148935674Y-99488256D01*
X148955460Y-99300000D01*
X148935674Y-99111744D01*
X148880627Y-98942328D01*
X148877181Y-98931722D01*
X148877180Y-98931721D01*
X148877179Y-98931716D01*
X148782533Y-98767784D01*
X148655871Y-98627112D01*
X148652341Y-98624547D01*
X148502734Y-98515851D01*
X148502729Y-98515848D01*
X148329807Y-98438857D01*
X148329802Y-98438855D01*
X148184000Y-98407865D01*
X148144646Y-98399500D01*
X148144645Y-98399500D01*
X148085452Y-98399500D01*
X148018413Y-98379815D01*
X147997771Y-98363181D01*
X147450803Y-97816212D01*
X147440980Y-97803950D01*
X147440759Y-97804134D01*
X147435786Y-97798123D01*
X147418175Y-97781585D01*
X147385364Y-97750773D01*
X147374919Y-97740328D01*
X147364475Y-97729883D01*
X147358986Y-97725625D01*
X147354561Y-97721847D01*
X147320582Y-97689938D01*
X147320580Y-97689936D01*
X147320577Y-97689935D01*
X147303029Y-97680288D01*
X147286763Y-97669604D01*
X147270933Y-97657325D01*
X147228168Y-97638818D01*
X147222922Y-97636248D01*
X147182093Y-97613803D01*
X147182092Y-97613802D01*
X147162693Y-97608822D01*
X147144281Y-97602518D01*
X147125898Y-97594562D01*
X147125892Y-97594560D01*
X147079874Y-97587272D01*
X147074152Y-97586087D01*
X147029021Y-97574500D01*
X147029019Y-97574500D01*
X147008984Y-97574500D01*
X146989586Y-97572973D01*
X146982162Y-97571797D01*
X146969805Y-97569840D01*
X146969804Y-97569840D01*
X146923416Y-97574225D01*
X146917578Y-97574500D01*
X146873467Y-97574500D01*
X146806428Y-97554815D01*
X146760673Y-97502011D01*
X146757285Y-97493834D01*
X146743796Y-97457669D01*
X146743793Y-97457664D01*
X146657547Y-97342455D01*
X146657544Y-97342452D01*
X146542335Y-97256206D01*
X146542328Y-97256202D01*
X146407482Y-97205908D01*
X146407483Y-97205908D01*
X146347883Y-97199501D01*
X146347881Y-97199500D01*
X146347873Y-97199500D01*
X146347865Y-97199500D01*
X143849500Y-97199500D01*
X143782461Y-97179815D01*
X143736706Y-97127011D01*
X143725500Y-97075500D01*
X143725500Y-95807742D01*
X143727224Y-95792122D01*
X143726939Y-95792096D01*
X143727671Y-95784340D01*
X143727673Y-95784333D01*
X143725500Y-95715185D01*
X143725500Y-95685650D01*
X143724631Y-95678772D01*
X143724172Y-95672943D01*
X143722709Y-95626372D01*
X143717122Y-95607144D01*
X143713174Y-95588084D01*
X143710664Y-95568208D01*
X143710663Y-95568206D01*
X143710663Y-95568204D01*
X143693512Y-95524887D01*
X143691619Y-95519358D01*
X143678618Y-95474609D01*
X143678616Y-95474606D01*
X143668423Y-95457371D01*
X143659861Y-95439894D01*
X143652487Y-95421270D01*
X143647391Y-95414256D01*
X143625079Y-95383545D01*
X143621888Y-95378686D01*
X143598172Y-95338583D01*
X143598165Y-95338574D01*
X143584006Y-95324415D01*
X143571368Y-95309619D01*
X143559594Y-95293413D01*
X143556614Y-95290948D01*
X143523688Y-95263709D01*
X143519376Y-95259786D01*
X141452404Y-93192813D01*
X141418919Y-93131490D01*
X141421011Y-93070527D01*
X141422598Y-93065069D01*
X141425500Y-93028194D01*
X141425500Y-92596806D01*
X141422598Y-92559931D01*
X141376744Y-92402102D01*
X141293081Y-92260635D01*
X141293079Y-92260633D01*
X141293076Y-92260629D01*
X141176870Y-92144423D01*
X141176862Y-92144417D01*
X141035396Y-92060755D01*
X141035393Y-92060754D01*
X140877573Y-92014902D01*
X140877567Y-92014901D01*
X140840696Y-92012000D01*
X140840694Y-92012000D01*
X139674500Y-92012000D01*
X139607461Y-91992315D01*
X139561706Y-91939511D01*
X139550500Y-91888000D01*
X139550500Y-91836500D01*
X139570185Y-91769461D01*
X139622989Y-91723706D01*
X139674500Y-91712500D01*
X139937500Y-91712500D01*
X139937500Y-91162500D01*
X140437500Y-91162500D01*
X140437500Y-91712500D01*
X140840644Y-91712500D01*
X140877489Y-91709600D01*
X140877495Y-91709599D01*
X141035193Y-91663783D01*
X141035196Y-91663782D01*
X141176552Y-91580185D01*
X141176561Y-91580178D01*
X141292678Y-91464061D01*
X141292685Y-91464052D01*
X141376281Y-91322698D01*
X141422100Y-91164986D01*
X141422295Y-91162501D01*
X141422295Y-91162500D01*
X140437500Y-91162500D01*
X139937500Y-91162500D01*
X139281815Y-91162500D01*
X139218694Y-91145232D01*
X139160396Y-91110755D01*
X139160393Y-91110754D01*
X139002573Y-91064902D01*
X139002567Y-91064901D01*
X138965696Y-91062000D01*
X138965694Y-91062000D01*
X137659306Y-91062000D01*
X137659304Y-91062000D01*
X137622432Y-91064901D01*
X137622426Y-91064902D01*
X137464606Y-91110754D01*
X137464603Y-91110755D01*
X137323137Y-91194417D01*
X137323129Y-91194423D01*
X137206923Y-91310629D01*
X137206917Y-91310637D01*
X137123255Y-91452103D01*
X137123254Y-91452106D01*
X137077402Y-91609926D01*
X137077401Y-91609932D01*
X137074500Y-91646804D01*
X137074500Y-92078198D01*
X137077482Y-92116100D01*
X137063116Y-92184477D01*
X137041545Y-92213507D01*
X136261681Y-92993372D01*
X136200358Y-93026857D01*
X136130667Y-93021873D01*
X136074733Y-92980001D01*
X136050316Y-92914537D01*
X136050000Y-92905691D01*
X136050000Y-90662498D01*
X138952704Y-90662498D01*
X138952705Y-90662500D01*
X139937500Y-90662500D01*
X139937500Y-90112500D01*
X140437500Y-90112500D01*
X140437500Y-90662500D01*
X141422295Y-90662500D01*
X141422295Y-90662498D01*
X141422100Y-90660013D01*
X141376281Y-90502301D01*
X141292685Y-90360947D01*
X141292678Y-90360938D01*
X141176561Y-90244821D01*
X141176552Y-90244814D01*
X141035196Y-90161217D01*
X141035193Y-90161216D01*
X140877495Y-90115400D01*
X140877489Y-90115399D01*
X140840644Y-90112500D01*
X140437500Y-90112500D01*
X139937500Y-90112500D01*
X139534356Y-90112500D01*
X139497510Y-90115399D01*
X139497504Y-90115400D01*
X139339806Y-90161216D01*
X139339803Y-90161217D01*
X139198447Y-90244814D01*
X139198438Y-90244821D01*
X139082321Y-90360938D01*
X139082314Y-90360947D01*
X138998718Y-90502301D01*
X138952899Y-90660013D01*
X138952704Y-90662498D01*
X136050000Y-90662498D01*
X136050000Y-89544500D01*
X136069685Y-89477461D01*
X136122489Y-89431706D01*
X136174000Y-89420500D01*
X144406000Y-89420500D01*
X144473039Y-89440185D01*
G37*
%TD.AperFunction*%
%TA.AperFunction,Conductor*%
G36*
X137559087Y-100693721D02*
G01*
X137572431Y-100697598D01*
X137584722Y-100698565D01*
X137609304Y-100700500D01*
X137609306Y-100700500D01*
X138151564Y-100700500D01*
X138158502Y-100700889D01*
X138187400Y-100704145D01*
X138199998Y-100705565D01*
X138200000Y-100705565D01*
X138200002Y-100705565D01*
X138212599Y-100704145D01*
X138241497Y-100700889D01*
X138248436Y-100700500D01*
X138775500Y-100700500D01*
X138842539Y-100720185D01*
X138888294Y-100772989D01*
X138899500Y-100824500D01*
X138899500Y-101065696D01*
X138902401Y-101102567D01*
X138902402Y-101102573D01*
X138948254Y-101260393D01*
X138948255Y-101260396D01*
X138948256Y-101260398D01*
X138981051Y-101315851D01*
X139031917Y-101401862D01*
X139031923Y-101401870D01*
X139148129Y-101518076D01*
X139148133Y-101518079D01*
X139148135Y-101518081D01*
X139289602Y-101601744D01*
X139422597Y-101640383D01*
X139481480Y-101677988D01*
X139510687Y-101741460D01*
X139512000Y-101759458D01*
X139512000Y-102552787D01*
X139492315Y-102619826D01*
X139439511Y-102665581D01*
X139370353Y-102675525D01*
X139306797Y-102646500D01*
X139289047Y-102627515D01*
X139272055Y-102605014D01*
X139111131Y-102458314D01*
X138925987Y-102343677D01*
X138925985Y-102343676D01*
X138722931Y-102265013D01*
X138722921Y-102265010D01*
X138650001Y-102251378D01*
X138650000Y-102251379D01*
X138650000Y-103084314D01*
X138638045Y-103072359D01*
X138525148Y-103014835D01*
X138431481Y-103000000D01*
X138368519Y-103000000D01*
X138274852Y-103014835D01*
X138161955Y-103072359D01*
X138150000Y-103084313D01*
X138150000Y-102251379D01*
X138149998Y-102251378D01*
X138077078Y-102265010D01*
X138077068Y-102265013D01*
X137874014Y-102343676D01*
X137874012Y-102343677D01*
X137688869Y-102458314D01*
X137688868Y-102458314D01*
X137608037Y-102532001D01*
X137545233Y-102562617D01*
X137475846Y-102554419D01*
X137421906Y-102510009D01*
X137400539Y-102443486D01*
X137400500Y-102440363D01*
X137400500Y-100812799D01*
X137420185Y-100745760D01*
X137472989Y-100700005D01*
X137542147Y-100690061D01*
X137559087Y-100693721D01*
G37*
%TD.AperFunction*%
%TA.AperFunction,Conductor*%
G36*
X138892539Y-96682685D02*
G01*
X138938294Y-96735489D01*
X138949500Y-96787000D01*
X138949500Y-97028196D01*
X138952401Y-97065067D01*
X138952402Y-97065073D01*
X138998254Y-97222893D01*
X138998255Y-97222896D01*
X139081917Y-97364362D01*
X139081923Y-97364370D01*
X139198129Y-97480576D01*
X139198133Y-97480579D01*
X139198135Y-97480581D01*
X139339602Y-97564244D01*
X139369647Y-97572973D01*
X139497426Y-97610097D01*
X139497429Y-97610097D01*
X139497431Y-97610098D01*
X139509722Y-97611065D01*
X139534304Y-97613000D01*
X139534306Y-97613000D01*
X140840696Y-97613000D01*
X140859131Y-97611549D01*
X140877569Y-97610098D01*
X140877571Y-97610097D01*
X140877573Y-97610097D01*
X140931044Y-97594562D01*
X141035398Y-97564244D01*
X141037378Y-97563072D01*
X141039133Y-97562627D01*
X141042554Y-97561147D01*
X141042792Y-97561698D01*
X141105101Y-97545889D01*
X141171364Y-97568048D01*
X141215128Y-97622513D01*
X141224500Y-97669804D01*
X141224500Y-97701312D01*
X141204815Y-97768351D01*
X141192650Y-97784284D01*
X141117466Y-97867784D01*
X141022821Y-98031715D01*
X141022820Y-98031717D01*
X141007126Y-98080019D01*
X140967687Y-98137694D01*
X140903328Y-98164891D01*
X140854603Y-98160776D01*
X140827497Y-98152901D01*
X140827484Y-98152899D01*
X140790644Y-98150000D01*
X140387500Y-98150000D01*
X140387500Y-99750000D01*
X140790644Y-99750000D01*
X140833808Y-99746603D01*
X140833975Y-99748734D01*
X140893667Y-99755013D01*
X140948171Y-99798728D01*
X140970389Y-99864971D01*
X140964185Y-99908687D01*
X140944865Y-99966990D01*
X140905092Y-100024435D01*
X140840576Y-100051258D01*
X140817431Y-100051604D01*
X140790697Y-100049500D01*
X140790694Y-100049500D01*
X139624500Y-100049500D01*
X139557461Y-100029815D01*
X139511706Y-99977011D01*
X139500500Y-99925500D01*
X139500500Y-99874000D01*
X139520185Y-99806961D01*
X139572989Y-99761206D01*
X139624500Y-99750000D01*
X139887500Y-99750000D01*
X139887500Y-99200000D01*
X139231815Y-99200000D01*
X139168694Y-99182732D01*
X139153322Y-99173641D01*
X139110398Y-99148256D01*
X139110397Y-99148255D01*
X139110396Y-99148255D01*
X139110393Y-99148254D01*
X138952573Y-99102402D01*
X138952567Y-99102401D01*
X138915696Y-99099500D01*
X138915694Y-99099500D01*
X138248436Y-99099500D01*
X138241497Y-99099110D01*
X138212599Y-99095854D01*
X138200002Y-99094435D01*
X138199998Y-99094435D01*
X138187400Y-99095854D01*
X138158502Y-99099110D01*
X138151564Y-99099500D01*
X137609304Y-99099500D01*
X137572432Y-99102401D01*
X137572426Y-99102402D01*
X137559095Y-99106276D01*
X137489225Y-99106077D01*
X137430555Y-99068135D01*
X137401712Y-99004496D01*
X137400500Y-98987200D01*
X137400500Y-98699998D01*
X138902704Y-98699998D01*
X138902705Y-98700000D01*
X139887500Y-98700000D01*
X139887500Y-98150000D01*
X139484356Y-98150000D01*
X139447510Y-98152899D01*
X139447504Y-98152900D01*
X139289806Y-98198716D01*
X139289803Y-98198717D01*
X139148447Y-98282314D01*
X139148438Y-98282321D01*
X139032321Y-98398438D01*
X139032314Y-98398447D01*
X138948718Y-98539801D01*
X138902899Y-98697513D01*
X138902704Y-98699998D01*
X137400500Y-98699998D01*
X137400500Y-97745807D01*
X137420185Y-97678768D01*
X137436819Y-97658126D01*
X138395627Y-96699319D01*
X138456950Y-96665834D01*
X138483308Y-96663000D01*
X138825500Y-96663000D01*
X138892539Y-96682685D01*
G37*
%TD.AperFunction*%
%TA.AperFunction,Conductor*%
G36*
X138892539Y-92682685D02*
G01*
X138938294Y-92735489D01*
X138949500Y-92787000D01*
X138949500Y-93028196D01*
X138952401Y-93065067D01*
X138952402Y-93065073D01*
X138998254Y-93222893D01*
X138998255Y-93222896D01*
X138998256Y-93222898D01*
X138999827Y-93225554D01*
X139081917Y-93364362D01*
X139081923Y-93364370D01*
X139198129Y-93480576D01*
X139198133Y-93480579D01*
X139198135Y-93480581D01*
X139339602Y-93564244D01*
X139381224Y-93576336D01*
X139497426Y-93610097D01*
X139497429Y-93610097D01*
X139497431Y-93610098D01*
X139509722Y-93611065D01*
X139534304Y-93613000D01*
X139534306Y-93613000D01*
X140052048Y-93613000D01*
X140119087Y-93632685D01*
X140139729Y-93649319D01*
X140432524Y-93942114D01*
X140466009Y-94003437D01*
X140461025Y-94073129D01*
X140437500Y-94109733D01*
X140437500Y-95712500D01*
X140840644Y-95712500D01*
X140877489Y-95709600D01*
X140877495Y-95709599D01*
X141035193Y-95663783D01*
X141035196Y-95663782D01*
X141176552Y-95580185D01*
X141176561Y-95580178D01*
X141292678Y-95464061D01*
X141292685Y-95464052D01*
X141376281Y-95322698D01*
X141416124Y-95185558D01*
X141453731Y-95126673D01*
X141517203Y-95097466D01*
X141586390Y-95107212D01*
X141622882Y-95132472D01*
X142438181Y-95947771D01*
X142471666Y-96009094D01*
X142474500Y-96035452D01*
X142474500Y-96540547D01*
X142454815Y-96607586D01*
X142402011Y-96653341D01*
X142332853Y-96663285D01*
X142269297Y-96634260D01*
X142262819Y-96628228D01*
X142042392Y-96407801D01*
X142027521Y-96389827D01*
X142022924Y-96383062D01*
X142022921Y-96383059D01*
X142022919Y-96383056D01*
X141979852Y-96345089D01*
X141977028Y-96342437D01*
X141964471Y-96329880D01*
X141950442Y-96318997D01*
X141947444Y-96316517D01*
X141933873Y-96304553D01*
X141904378Y-96278550D01*
X141904374Y-96278548D01*
X141904373Y-96278547D01*
X141897096Y-96274839D01*
X141877397Y-96262338D01*
X141870939Y-96257329D01*
X141870934Y-96257326D01*
X141851535Y-96248931D01*
X141818241Y-96234524D01*
X141814723Y-96232868D01*
X141763565Y-96206802D01*
X141763560Y-96206800D01*
X141755587Y-96205018D01*
X141733396Y-96197807D01*
X141725896Y-96194562D01*
X141725894Y-96194561D01*
X141725893Y-96194561D01*
X141669196Y-96185582D01*
X141665370Y-96184852D01*
X141609331Y-96172326D01*
X141601158Y-96172583D01*
X141577877Y-96171118D01*
X141569806Y-96169840D01*
X141569802Y-96169840D01*
X141512655Y-96175241D01*
X141508768Y-96175486D01*
X141451372Y-96177289D01*
X141451369Y-96177290D01*
X141443511Y-96179573D01*
X141420595Y-96183944D01*
X141404700Y-96185447D01*
X141404678Y-96185218D01*
X141388545Y-96187000D01*
X141270809Y-96187000D01*
X141203770Y-96167315D01*
X141183128Y-96150681D01*
X141176870Y-96144423D01*
X141176862Y-96144417D01*
X141035396Y-96060755D01*
X141035393Y-96060754D01*
X140877573Y-96014902D01*
X140877567Y-96014901D01*
X140840696Y-96012000D01*
X140840694Y-96012000D01*
X139674500Y-96012000D01*
X139607461Y-95992315D01*
X139561706Y-95939511D01*
X139550500Y-95888000D01*
X139550500Y-95836500D01*
X139570185Y-95769461D01*
X139622989Y-95723706D01*
X139674500Y-95712500D01*
X139937500Y-95712500D01*
X139937500Y-95162500D01*
X139281815Y-95162500D01*
X139218694Y-95145232D01*
X139160396Y-95110755D01*
X139160393Y-95110754D01*
X139002573Y-95064902D01*
X139002567Y-95064901D01*
X138965696Y-95062000D01*
X138965694Y-95062000D01*
X137659306Y-95062000D01*
X137659304Y-95062000D01*
X137622432Y-95064901D01*
X137622426Y-95064902D01*
X137464606Y-95110754D01*
X137464603Y-95110755D01*
X137323137Y-95194417D01*
X137323129Y-95194423D01*
X137206923Y-95310629D01*
X137206916Y-95310638D01*
X137181232Y-95354069D01*
X137130163Y-95401753D01*
X137061421Y-95414256D01*
X136996832Y-95387611D01*
X136956902Y-95330275D01*
X136950500Y-95290948D01*
X136950500Y-94662498D01*
X138952704Y-94662498D01*
X138952705Y-94662500D01*
X139937500Y-94662500D01*
X139937500Y-94112500D01*
X139534356Y-94112500D01*
X139497510Y-94115399D01*
X139497504Y-94115400D01*
X139339806Y-94161216D01*
X139339803Y-94161217D01*
X139198447Y-94244814D01*
X139198438Y-94244821D01*
X139082321Y-94360938D01*
X139082314Y-94360947D01*
X138998718Y-94502301D01*
X138952899Y-94660013D01*
X138952704Y-94662498D01*
X136950500Y-94662498D01*
X136950500Y-94195807D01*
X136970185Y-94128768D01*
X136986819Y-94108126D01*
X138395626Y-92699319D01*
X138456949Y-92665834D01*
X138483307Y-92663000D01*
X138825500Y-92663000D01*
X138892539Y-92682685D01*
G37*
%TD.AperFunction*%
%TD*%
M02*
