%TF.GenerationSoftware,KiCad,Pcbnew,7.0.6*%
%TF.CreationDate,2024-04-30T22:03:54+02:00*%
%TF.ProjectId,MB-V2,4d422d56-322e-46b6-9963-61645f706362,rev?*%
%TF.SameCoordinates,Original*%
%TF.FileFunction,Paste,Top*%
%TF.FilePolarity,Positive*%
%FSLAX46Y46*%
G04 Gerber Fmt 4.6, Leading zero omitted, Abs format (unit mm)*
G04 Created by KiCad (PCBNEW 7.0.6) date 2024-04-30 22:03:54*
%MOMM*%
%LPD*%
G01*
G04 APERTURE LIST*
G04 Aperture macros list*
%AMRoundRect*
0 Rectangle with rounded corners*
0 $1 Rounding radius*
0 $2 $3 $4 $5 $6 $7 $8 $9 X,Y pos of 4 corners*
0 Add a 4 corners polygon primitive as box body*
4,1,4,$2,$3,$4,$5,$6,$7,$8,$9,$2,$3,0*
0 Add four circle primitives for the rounded corners*
1,1,$1+$1,$2,$3*
1,1,$1+$1,$4,$5*
1,1,$1+$1,$6,$7*
1,1,$1+$1,$8,$9*
0 Add four rect primitives between the rounded corners*
20,1,$1+$1,$2,$3,$4,$5,0*
20,1,$1+$1,$4,$5,$6,$7,0*
20,1,$1+$1,$6,$7,$8,$9,0*
20,1,$1+$1,$8,$9,$2,$3,0*%
G04 Aperture macros list end*
%ADD10RoundRect,0.250000X-0.475000X0.250000X-0.475000X-0.250000X0.475000X-0.250000X0.475000X0.250000X0*%
%ADD11RoundRect,0.250000X-0.450000X0.262500X-0.450000X-0.262500X0.450000X-0.262500X0.450000X0.262500X0*%
%ADD12RoundRect,0.250000X0.425000X-0.450000X0.425000X0.450000X-0.425000X0.450000X-0.425000X-0.450000X0*%
%ADD13RoundRect,0.250000X-0.262500X-0.450000X0.262500X-0.450000X0.262500X0.450000X-0.262500X0.450000X0*%
%ADD14RoundRect,0.250000X0.450000X0.425000X-0.450000X0.425000X-0.450000X-0.425000X0.450000X-0.425000X0*%
%ADD15RoundRect,0.250000X0.475000X-0.250000X0.475000X0.250000X-0.475000X0.250000X-0.475000X-0.250000X0*%
%ADD16RoundRect,0.250000X0.450000X-0.262500X0.450000X0.262500X-0.450000X0.262500X-0.450000X-0.262500X0*%
%ADD17RoundRect,0.250000X0.262500X0.450000X-0.262500X0.450000X-0.262500X-0.450000X0.262500X-0.450000X0*%
%ADD18RoundRect,0.250000X0.250000X0.475000X-0.250000X0.475000X-0.250000X-0.475000X0.250000X-0.475000X0*%
%ADD19R,1.500000X2.000000*%
%ADD20R,3.800000X2.000000*%
%ADD21RoundRect,0.150000X0.587500X0.150000X-0.587500X0.150000X-0.587500X-0.150000X0.587500X-0.150000X0*%
%ADD22R,2.500000X1.000000*%
%ADD23R,1.000000X1.800000*%
G04 APERTURE END LIST*
D10*
%TO.C,C2*%
X170650000Y-101980000D03*
X170650000Y-103880000D03*
%TD*%
D11*
%TO.C,R6*%
X142100000Y-100487500D03*
X142100000Y-102312500D03*
%TD*%
D12*
%TO.C,C4*%
X168250000Y-107250000D03*
X168250000Y-104550000D03*
%TD*%
D13*
%TO.C,R3*%
X163685000Y-106630000D03*
X165510000Y-106630000D03*
%TD*%
D14*
%TO.C,C1*%
X167467500Y-102440000D03*
X164767500Y-102440000D03*
%TD*%
D15*
%TO.C,C3*%
X170650000Y-107450000D03*
X170650000Y-105550000D03*
%TD*%
D16*
%TO.C,R7*%
X142100000Y-110012500D03*
X142100000Y-108187500D03*
%TD*%
D17*
%TO.C,R2*%
X165530000Y-104680000D03*
X163705000Y-104680000D03*
%TD*%
%TO.C,R1*%
X170162500Y-109700000D03*
X168337500Y-109700000D03*
%TD*%
D13*
%TO.C,R5*%
X163685000Y-110520000D03*
X165510000Y-110520000D03*
%TD*%
D18*
%TO.C,C5*%
X142780000Y-113320000D03*
X140880000Y-113320000D03*
%TD*%
D19*
%TO.C,U2*%
X177750000Y-102950000D03*
X175450000Y-102950000D03*
D20*
X175450000Y-109250000D03*
D19*
X173150000Y-102950000D03*
%TD*%
D21*
%TO.C,Q3*%
X140187500Y-92812500D03*
X140187500Y-90912500D03*
X138312500Y-91862500D03*
%TD*%
D16*
%TO.C,R8*%
X142100000Y-106212500D03*
X142100000Y-104387500D03*
%TD*%
D22*
%TO.C,U1*%
X145050000Y-98200000D03*
X145050000Y-100200000D03*
X145050000Y-102200000D03*
X145050000Y-104200000D03*
X145050000Y-106200000D03*
X145050000Y-108200000D03*
X145050000Y-110200000D03*
X145050000Y-112200000D03*
D23*
X147650000Y-113700000D03*
X149650000Y-113700000D03*
X151650000Y-113700000D03*
X153650000Y-113700000D03*
X155650000Y-113700000D03*
X157650000Y-113700000D03*
D22*
X160250000Y-112200000D03*
X160250000Y-110200000D03*
X160250000Y-108200000D03*
X160250000Y-106200000D03*
X160250000Y-104200000D03*
X160250000Y-102200000D03*
X160250000Y-100200000D03*
X160250000Y-98200000D03*
%TD*%
D13*
%TO.C,R4*%
X163685000Y-108580000D03*
X165510000Y-108580000D03*
%TD*%
D21*
%TO.C,Q1*%
X140137500Y-100850000D03*
X140137500Y-98950000D03*
X138262500Y-99900000D03*
%TD*%
%TO.C,Q2*%
X140187500Y-96812500D03*
X140187500Y-94912500D03*
X138312500Y-95862500D03*
%TD*%
M02*
