M48
; DRILL file {KiCad 7.0.6} date Tue Apr 30 22:03:49 2024
; FORMAT={-:-/ absolute / inch / decimal}
; #@! TF.CreationDate,2024-04-30T22:03:49+02:00
; #@! TF.GenerationSoftware,Kicad,Pcbnew,7.0.6
; #@! TF.FileFunction,MixedPlating,1,2
FMAT,2
INCH
; #@! TA.AperFunction,Plated,PTH,ViaDrill
T1C0.0157
; #@! TA.AperFunction,Plated,PTH,ComponentDrill
T2C0.0315
; #@! TA.AperFunction,Plated,PTH,ComponentDrill
T3C0.0394
%
G90
G05
T1
X5.4409Y-3.9331
X5.4508Y-3.8465
X5.5394Y-4.3937
X5.5846Y-3.874
X5.5886Y-3.7736
X5.5906Y-3.6063
X5.5945Y-4.0276
X5.5965Y-4.1102
X5.6339Y-3.874
X5.8051Y-4.0197
X5.8287Y-3.9094
X5.8571Y-4.4138
X5.9787Y-4.0878
X6.2224Y-3.9016
X6.2224Y-3.9488
X6.3862Y-4.4941
X6.4016Y-4.4114
X6.5492Y-4.4055
X6.5768Y-4.2795
X6.6476Y-3.9016
X6.8524Y-4.1614
X6.9783Y-3.9567
T2
X5.4488Y-4.0709
X5.4488Y-4.1496
X5.4488Y-4.2283
X5.4488Y-4.3071
X5.4488Y-4.3858
X5.4488Y-4.4646
T3
X6.4756Y-4.4634
X6.5756Y-4.4634
X6.6756Y-4.4634
X6.7756Y-4.4634
X6.8756Y-4.4634
X6.9756Y-4.4634
T3
G00X6.4846Y-3.831
M15
G01X6.4846Y-3.7523
M16
G05
G00X6.6421Y-3.6066
M15
G01X6.5634Y-3.6066
M16
G05
G00X6.7209Y-3.831
M15
G01X6.7209Y-3.7523
M16
G05
T0
M30
